<svg width="156" height="40" viewBox="0 0 156 40" fill="none" xmlns="http://www.w3.org/2000/svg">
<path d="M17.1543 7.77921C13.5159 7.77921 10.2476 8.84942 7.34928 10.9898V0.762939H0.843475V25.4073H0.935976C1.34709 29.6073 3.07376 33.0601 6.11597 35.7662C9.17874 38.4517 12.8581 39.7944 17.1543 39.7944C21.7587 39.7944 25.6231 38.2599 28.7474 35.1905C31.8719 32.1211 33.4341 28.3253 33.4341 23.802C33.4341 19.2587 31.8719 15.4524 28.7474 12.3831C25.6437 9.31384 21.7792 7.77921 17.1543 7.77921ZM17.1543 14.2004C19.9498 14.2004 22.2726 15.1192 24.1225 16.9567C25.9931 18.7741 26.9284 21.0558 26.9284 23.802C26.9284 26.5483 25.9931 28.84 24.1225 30.6778C22.2726 32.4951 19.9498 33.4036 17.1543 33.4036C14.3587 33.4036 12.0257 32.4951 10.1551 30.6778C8.28456 28.84 7.34928 26.5483 7.34928 23.802C7.34928 21.0558 8.28456 18.7741 10.1551 16.9567C12.0257 15.1192 14.3587 14.2004 17.1543 14.2004ZM69.5105 22.1967C69.0996 18.0169 67.3625 14.574 64.2999 11.8682C61.2576 9.1422 57.5986 7.77921 53.3231 7.77921C48.6982 7.77921 44.8235 9.31384 41.6987 12.3831C38.5743 15.4524 37.0126 19.2587 37.0126 23.802C37.0126 28.3455 38.5743 32.1516 41.6987 35.221C44.8235 38.2699 48.6982 39.7944 53.3231 39.7944C56.9407 39.7944 60.1989 38.7345 63.0973 36.6143V39.7944H69.6031V22.1967H69.5105ZM53.3231 14.2004C56.1186 14.2004 58.4414 15.1192 60.2915 16.9567C62.162 18.7741 63.0973 21.0558 63.0973 23.802C63.0973 26.5483 62.162 28.84 60.2915 30.6778C58.4414 32.4951 56.1186 33.4036 53.3231 33.4036C50.5273 33.4036 48.1944 32.4951 46.3239 30.6778C44.4534 28.84 43.5183 26.5483 43.5183 23.802C43.5183 21.0558 44.4534 18.7741 46.3239 16.9567C48.1944 15.1192 50.5273 14.2004 53.3231 14.2004ZM95.5043 8.59697C93.6338 7.89026 91.6294 7.53689 89.492 7.53689C84.8668 7.53689 80.9922 9.07152 77.8677 12.1408C74.7432 15.2101 73.1813 19.0164 73.1813 23.5597V39.5524H79.687V23.5597C79.687 20.7933 80.612 18.5015 82.4621 16.6841C84.3326 14.8466 86.6758 13.9279 89.492 13.9279C90.5197 13.9279 91.4859 14.0692 92.3902 14.3519C92.7603 13.8672 93.4179 12.9889 94.3636 11.7167C95.3091 10.4446 95.7818 9.54606 95.7818 9.02103C95.7818 8.79893 95.6895 8.65759 95.5043 8.59697ZM113.329 7.77921C109.69 7.77921 106.422 8.84942 103.524 10.9898V0.762939H97.0182V25.4073H97.1105C97.5214 29.6073 99.2484 33.0601 102.29 35.7662C105.353 38.4517 109.033 39.7944 113.329 39.7944C117.933 39.7944 121.797 38.2599 124.922 35.1905C128.047 32.1211 129.609 28.3253 129.609 23.802C129.609 19.2587 128.047 15.4524 124.922 12.3831C121.818 9.31384 117.954 7.77921 113.329 7.77921ZM113.329 14.2004C116.124 14.2004 118.447 15.1192 120.297 16.9567C122.168 18.7741 123.103 21.0558 123.103 23.802C123.103 26.5483 122.168 28.84 120.297 30.6778C118.447 32.4951 116.124 33.4036 113.329 33.4036C110.533 33.4036 108.2 32.4951 106.329 30.6778C104.459 28.84 103.524 26.5483 103.524 23.802C103.524 21.0558 104.459 18.7741 106.329 16.9567C108.2 15.1192 110.533 14.2004 113.329 14.2004ZM155.51 8.59697C153.639 7.89026 151.636 7.53689 149.498 7.53689C144.873 7.53689 140.998 9.07152 137.873 12.1408C134.749 15.2101 133.187 19.0164 133.187 23.5597V39.5524H139.693V23.5597C139.693 20.7933 140.618 18.5015 142.468 16.6841C144.338 14.8466 146.681 13.9279 149.498 13.9279C150.526 13.9279 151.492 14.0692 152.396 14.3519C152.766 13.8672 153.424 12.9889 154.369 11.7167C155.315 10.4446 155.788 9.54606 155.788 9.02103C155.788 8.79893 155.695 8.65759 155.51 8.59697Z" fill="white"/>
</svg>
