<svg width="130" height="141" viewBox="0 0 130 141" fill="none" xmlns="http://www.w3.org/2000/svg">
<path d="M86.9966 0.208496C39.5638 0.208496 0.989746 38.7601 0.989746 86.1653C0.989746 133.571 39.5638 172.122 86.9966 172.122C134.429 172.122 173.003 133.571 173.003 86.1653C173.003 38.7601 134.429 0.208496 86.9966 0.208496ZM86.9966 165.675C43.1331 165.675 7.44026 130.003 7.44026 86.1653C7.44026 42.3273 43.1331 6.65526 86.9966 6.65526C130.86 6.65526 166.553 42.3273 166.553 86.1653C166.553 130.003 130.86 165.675 86.9966 165.675Z" fill="url(#paint0_linear_1_3336)"/>
<path d="M79.6009 16.8407C79.6009 16.8407 79.6869 16.8407 79.7084 16.8407C80.289 16.7762 80.719 16.2605 80.676 15.6588L80.461 13.6388C80.3965 13.0371 79.8589 12.6288 79.2784 12.6718C78.6979 12.7363 78.2678 13.252 78.3108 13.8537L78.5258 15.8737C78.5904 16.4324 79.0419 16.8407 79.6009 16.8407Z" fill="url(#paint1_linear_1_3336)"/>
<path d="M71.2141 17.1415C71.3216 17.6358 71.7732 18.0011 72.2677 18.0011C72.3537 18.0011 72.4182 18.0011 72.4827 17.9796C73.0633 17.8507 73.4288 17.2919 73.3213 16.7117L72.8913 14.7132C72.7623 14.133 72.1817 13.7677 71.6227 13.8752C71.0421 14.0041 70.6766 14.5628 70.7841 15.143L71.2141 17.1415Z" fill="url(#paint2_linear_1_3336)"/>
<path d="M64.0977 19.1833C64.2482 19.6346 64.6567 19.9355 65.1298 19.9355C65.2373 19.9355 65.3448 19.9355 65.4738 19.8925C66.0328 19.6991 66.3554 19.0974 66.1618 18.5387L65.5383 16.6046C65.3448 16.0459 64.7642 15.7236 64.1837 15.917C63.6246 16.1104 63.3021 16.7121 63.4956 17.2708L64.1192 19.2048L64.0977 19.1833Z" fill="url(#paint3_linear_1_3336)"/>
<path d="M57.1952 21.9338C57.3673 22.3421 57.7758 22.5784 58.1843 22.5784C58.3348 22.5784 58.4853 22.557 58.6144 22.4925C59.1519 22.2561 59.4099 21.6114 59.1519 21.0742L58.3133 19.2046C58.0768 18.6674 57.4318 18.4095 56.8942 18.6674C56.3567 18.9038 56.0987 19.5485 56.3567 20.0857L57.1952 21.9553V21.9338Z" fill="url(#paint4_linear_1_3336)"/>
<path d="M50.6594 25.3934C50.8529 25.7372 51.2185 25.9306 51.584 25.9306C51.756 25.9306 51.9495 25.8876 52.1215 25.7802C52.6376 25.4793 52.8096 24.8347 52.5086 24.3189L51.498 22.5568C51.197 22.0411 50.5519 21.8692 50.0359 22.17C49.5198 22.4709 49.3478 23.1155 49.6489 23.6313L50.6594 25.3934Z" fill="url(#paint5_linear_1_3336)"/>
<path d="M45.025 26.619C44.681 26.1463 43.993 26.0388 43.5199 26.3827C43.0469 26.7265 42.9394 27.3926 43.2834 27.8869L44.4875 29.5416C44.7025 29.8209 45.025 29.9928 45.3476 29.9928C45.5626 29.9928 45.7991 29.9284 45.9711 29.778C46.4442 29.4341 46.5517 28.768 46.2076 28.2737L45.0035 26.619H45.025Z" fill="url(#paint6_linear_1_3336)"/>
<path d="M39.027 31.3244C38.6184 30.8731 37.9519 30.8516 37.5004 31.2384C37.0488 31.6467 37.0273 32.3129 37.4144 32.7641L38.7905 34.2899C39.0055 34.5263 39.285 34.6552 39.586 34.6552C39.844 34.6552 40.1021 34.5692 40.2956 34.3758C40.7471 33.9675 40.7686 33.3014 40.3816 32.8501L39.0055 31.3244H39.027Z" fill="url(#paint7_linear_1_3336)"/>
<path d="M33.5657 36.6329C33.1142 36.2461 32.4476 36.2676 32.0391 36.7189C31.6521 37.1702 31.6736 37.8363 32.1251 38.2446L33.6517 39.5985C33.8668 39.7919 34.1248 39.8778 34.3613 39.8778C34.6623 39.8778 34.9418 39.7489 35.1569 39.5125C35.5439 39.0612 35.5224 38.3951 35.0709 37.9868L33.5442 36.6329H33.5657Z" fill="url(#paint8_linear_1_3336)"/>
<path d="M28.6833 42.4996C28.2103 42.1558 27.5222 42.2632 27.1782 42.736C26.8342 43.2087 26.9417 43.8964 27.4147 44.2402L29.0703 45.4436C29.2638 45.5726 29.4789 45.6585 29.6939 45.6585C30.0164 45.6585 30.3604 45.5081 30.554 45.2072C30.898 44.7345 30.7905 44.0468 30.3174 43.703L28.6618 42.4996H28.6833Z" fill="url(#paint9_linear_1_3336)"/>
<path d="M26.1903 49.8485L24.4271 48.8385C23.9111 48.5376 23.266 48.7095 22.965 49.2253C22.664 49.741 22.836 50.3857 23.352 50.6865L25.1152 51.6965C25.2872 51.804 25.4807 51.847 25.6527 51.847C26.0183 51.847 26.3838 51.6535 26.5773 51.3097C26.8783 50.794 26.7063 50.1493 26.1903 49.8485Z" fill="url(#paint10_linear_1_3336)"/>
<path d="M19.998 57.5204L21.8687 58.3585C22.0192 58.423 22.1697 58.4445 22.2987 58.4445C22.7072 58.4445 23.0943 58.2081 23.2878 57.7998C23.5243 57.2626 23.2878 56.6179 22.7502 56.3815L20.8796 55.5434C20.3421 55.3071 19.697 55.5434 19.4605 56.0807C19.224 56.6179 19.4605 57.2626 19.998 57.499V57.5204Z" fill="url(#paint11_linear_1_3336)"/>
<path d="M17.3738 64.676L19.309 65.2992C19.4165 65.3422 19.524 65.3422 19.6315 65.3422C20.083 65.3422 20.513 65.0628 20.6636 64.59C20.8356 64.0313 20.5346 63.4296 19.9755 63.2362L18.0404 62.613C17.4813 62.4196 16.8793 62.742 16.6857 63.3007C16.5137 63.8594 16.8148 64.4611 17.3738 64.6545V64.676Z" fill="url(#paint12_linear_1_3336)"/>
<path d="M15.5038 72.0678L17.5035 72.4976C17.5035 72.4976 17.654 72.5191 17.7185 72.5191C18.213 72.5191 18.6646 72.1753 18.7721 71.6595C18.9011 71.0793 18.514 70.4991 17.9335 70.3917L15.9338 69.9619C15.3748 69.8329 14.7727 70.1982 14.6652 70.7999C14.5362 71.3802 14.9233 71.9604 15.5038 72.0678Z" fill="url(#paint13_linear_1_3336)"/>
<path d="M14.4066 79.6116L16.4277 79.8265C16.4277 79.8265 16.5138 79.8265 16.5353 79.8265C17.0728 79.8265 17.5458 79.4182 17.6103 78.8595C17.6748 78.2793 17.2448 77.7421 16.6643 77.6776L14.6431 77.4627C14.0196 77.3982 13.525 77.828 13.4605 78.4082C13.396 78.9884 13.826 79.5257 14.4066 79.5901V79.6116Z" fill="url(#paint14_linear_1_3336)"/>
<path d="M17.6313 93.4507C17.5668 92.8705 17.0723 92.4192 16.4487 92.5052L14.4276 92.7201C13.847 92.7845 13.417 93.3003 13.4815 93.902C13.546 94.4607 13.9975 94.869 14.5566 94.869C14.5996 94.869 14.6426 94.869 14.6641 94.869L16.6853 94.6541C17.2658 94.5896 17.6958 94.0739 17.6313 93.4722V93.4507Z" fill="url(#paint15_linear_1_3336)"/>
<path d="M18.772 100.649C18.643 100.069 18.0625 99.7037 17.5034 99.8112L15.5038 100.241C14.9232 100.37 14.5577 100.929 14.6652 101.509C14.7727 102.003 15.2243 102.368 15.7188 102.368C15.8048 102.368 15.8693 102.368 15.9338 102.347L17.9335 101.917C18.514 101.788 18.8795 101.229 18.772 100.649Z" fill="url(#paint16_linear_1_3336)"/>
<path d="M20.6629 107.698C20.4909 107.139 19.8673 106.817 19.3083 107.01L17.3731 107.633C16.8141 107.827 16.4916 108.428 16.6851 108.987C16.8356 109.438 17.2441 109.739 17.7172 109.739C17.8247 109.739 17.9322 109.739 18.0397 109.696L19.9748 109.073C20.5339 108.88 20.8564 108.278 20.6629 107.719V107.698Z" fill="url(#paint17_linear_1_3336)"/>
<path d="M23.2655 114.51C23.029 113.972 22.384 113.714 21.8464 113.972L19.9758 114.81C19.4382 115.047 19.1802 115.691 19.4382 116.229C19.6102 116.637 20.0188 116.873 20.4273 116.873C20.5778 116.873 20.7283 116.852 20.8573 116.787L22.728 115.949C23.2655 115.713 23.5235 115.068 23.2655 114.531V114.51Z" fill="url(#paint18_linear_1_3336)"/>
<path d="M25.1152 120.634L23.352 121.644C22.836 121.945 22.664 122.59 22.965 123.105C23.1585 123.449 23.5241 123.643 23.8896 123.643C24.0616 123.643 24.2551 123.6 24.4271 123.492L26.1903 122.482C26.7063 122.181 26.8783 121.537 26.5773 121.021C26.2763 120.505 25.6097 120.333 25.1152 120.634Z" fill="url(#paint19_linear_1_3336)"/>
<path d="M29.0703 126.909L27.4147 128.112C26.9417 128.456 26.8342 129.122 27.1782 129.616C27.3932 129.896 27.7157 130.068 28.0383 130.068C28.2533 130.068 28.4898 130.003 28.6618 129.853L30.3174 128.649C30.7905 128.306 30.898 127.639 30.554 127.145C30.2099 126.672 29.5219 126.565 29.0488 126.909H29.0703Z" fill="url(#paint20_linear_1_3336)"/>
<path d="M33.6517 132.732L32.1251 134.086C31.6736 134.473 31.6521 135.16 32.0391 135.612C32.2541 135.848 32.5551 135.977 32.8347 135.977C33.0927 135.977 33.3507 135.891 33.5442 135.698L35.0709 134.344C35.5224 133.957 35.5439 133.269 35.1569 132.818C34.7483 132.367 34.0818 132.345 33.6302 132.732H33.6517Z" fill="url(#paint21_linear_1_3336)"/>
<path d="M38.8115 138.04L37.4354 139.566C37.0269 140.017 37.0699 140.684 37.5214 141.092C37.7364 141.285 37.9944 141.371 38.2309 141.371C38.532 141.371 38.8115 141.242 39.0265 141.006L40.4026 139.48C40.8112 139.029 40.7682 138.363 40.3166 137.954C39.8651 137.568 39.1985 137.589 38.79 138.04H38.8115Z" fill="url(#paint22_linear_1_3336)"/>
<path d="M128.624 29.9711C128.947 29.9711 129.291 29.8207 129.484 29.5198L130.688 27.8652C131.032 27.3924 130.925 26.7048 130.452 26.3609C129.979 26.0171 129.291 26.1245 128.947 26.5973L127.743 28.252C127.399 28.7247 127.506 29.4124 127.979 29.7562C128.173 29.8852 128.388 29.9711 128.603 29.9711H128.624Z" fill="url(#paint23_linear_1_3336)"/>
<path d="M121.871 25.8022C122.043 25.9096 122.237 25.9526 122.409 25.9526C122.774 25.9526 123.14 25.7592 123.333 25.4154L124.344 23.6532C124.645 23.1375 124.473 22.4928 123.957 22.192C123.441 21.8911 122.774 22.063 122.495 22.5788L121.484 24.3409C121.183 24.8566 121.355 25.5013 121.871 25.8022Z" fill="url(#paint24_linear_1_3336)"/>
<path d="M115.379 22.4711C115.529 22.5355 115.658 22.557 115.809 22.557C116.217 22.557 116.604 22.3206 116.798 21.9123L117.636 20.0428C117.873 19.5055 117.636 18.8609 117.099 18.6245C116.561 18.3881 115.916 18.6245 115.68 19.1617L114.841 21.0313C114.605 21.5685 114.841 22.2132 115.379 22.4496V22.4711Z" fill="url(#paint25_linear_1_3336)"/>
<path d="M108.541 19.8712C108.649 19.9142 108.756 19.9142 108.885 19.9142C109.337 19.9142 109.767 19.6348 109.917 19.162L110.541 17.228C110.713 16.6693 110.412 16.0676 109.853 15.8742C109.272 15.7023 108.692 16.0031 108.498 16.5618L107.875 18.4959C107.703 19.0546 108.004 19.6563 108.563 19.8497L108.541 19.8712Z" fill="url(#paint26_linear_1_3336)"/>
<path d="M101.511 17.9804C101.511 17.9804 101.661 18.0019 101.726 18.0019C102.22 18.0019 102.672 17.658 102.779 17.1423L103.209 15.1438C103.338 14.5636 102.951 13.9834 102.371 13.8759C101.812 13.747 101.21 14.1123 101.102 14.714L100.672 16.7125C100.543 17.2927 100.93 17.8729 101.511 17.9804Z" fill="url(#paint27_linear_1_3336)"/>
<path d="M94.2865 16.8408C94.2865 16.8408 94.3725 16.8408 94.394 16.8408C94.9315 16.8408 95.4046 16.4325 95.4691 15.8738L95.6841 13.8538C95.7486 13.2736 95.3186 12.7364 94.7165 12.6719C94.136 12.6075 93.5984 13.0372 93.5339 13.6389L93.3189 15.6589C93.2544 16.2391 93.6844 16.7764 94.2865 16.8408Z" fill="url(#paint28_linear_1_3336)"/>
<path d="M86.9966 19.57C88.1792 19.57 89.1468 18.603 89.1468 17.4211V13.3381C89.1468 12.1562 88.1792 11.1892 86.9966 11.1892C85.814 11.1892 84.8464 12.1562 84.8464 13.3381V17.4211C84.8464 18.603 85.814 19.57 86.9966 19.57Z" fill="url(#paint29_linear_1_3336)"/>
<path d="M18.2133 88.3144C19.3959 88.3144 20.3635 87.3474 20.3635 86.1655C20.3635 84.9836 19.3959 84.0166 18.2133 84.0166H14.128C12.9454 84.0166 11.9778 84.9836 11.9778 86.1655C11.9778 87.3474 12.9454 88.3144 14.128 88.3144H18.2133Z" fill="url(#paint30_linear_1_3336)"/>
<path d="M140.623 57.3914C141.655 56.7897 141.999 55.4789 141.397 54.4474C140.795 53.4159 139.483 53.0721 138.451 53.6738L90.0079 81.9106C89.5134 81.5667 88.9543 81.3089 88.3523 81.137L88.3953 70.8436C88.3953 68.9526 85.557 68.9956 85.557 70.8436C85.557 70.8436 85.557 74.9266 85.6 81.137C85.0195 81.2874 84.4819 81.5453 83.9874 81.8676L55.4761 64.8481C54.4656 64.2465 53.1325 64.5688 52.5304 65.6003C51.9284 66.6318 52.2509 67.9426 53.283 68.5443L81.8157 85.5852C81.7942 85.7786 81.7512 85.972 81.7512 86.1654C81.7512 88.5937 83.4069 90.6137 85.6645 91.1939C85.7721 112.92 85.9226 144.251 85.9226 144.251C85.9226 145.669 88.0727 145.626 88.0727 144.251L88.3307 91.1939C90.5669 90.6137 92.2441 88.5722 92.2441 86.1654C92.2441 85.9935 92.2011 85.8216 92.2011 85.6282L140.666 57.3914H140.623Z" fill="url(#paint31_linear_1_3336)"/>
<defs>
<linearGradient id="paint0_linear_1_3336" x1="86.9966" y1="0.208496" x2="86.9966" y2="172.122" gradientUnits="userSpaceOnUse">
<stop stop-color="#00FF87"/>
<stop offset="1" stop-color="#60EFFF"/>
<stop offset="1" stop-color="#60EFFF"/>
</linearGradient>
<linearGradient id="paint1_linear_1_3336" x1="79.4934" y1="12.6687" x2="79.4934" y2="16.8407" gradientUnits="userSpaceOnUse">
<stop stop-color="#00FF87"/>
<stop offset="1" stop-color="#60EFFF"/>
<stop offset="1" stop-color="#60EFFF"/>
</linearGradient>
<linearGradient id="paint2_linear_1_3336" x1="72.0527" y1="13.8564" x2="72.0527" y2="18.0011" gradientUnits="userSpaceOnUse">
<stop stop-color="#00FF87"/>
<stop offset="1" stop-color="#60EFFF"/>
<stop offset="1" stop-color="#60EFFF"/>
</linearGradient>
<linearGradient id="paint3_linear_1_3336" x1="64.8287" y1="15.8606" x2="64.8287" y2="19.9355" gradientUnits="userSpaceOnUse">
<stop stop-color="#00FF87"/>
<stop offset="1" stop-color="#60EFFF"/>
<stop offset="1" stop-color="#60EFFF"/>
</linearGradient>
<linearGradient id="paint4_linear_1_3336" x1="57.7543" y1="18.5667" x2="57.7543" y2="22.5784" gradientUnits="userSpaceOnUse">
<stop stop-color="#00FF87"/>
<stop offset="1" stop-color="#60EFFF"/>
<stop offset="1" stop-color="#60EFFF"/>
</linearGradient>
<linearGradient id="paint5_linear_1_3336" x1="51.0787" y1="22.022" x2="51.0787" y2="25.9306" gradientUnits="userSpaceOnUse">
<stop stop-color="#00FF87"/>
<stop offset="1" stop-color="#60EFFF"/>
<stop offset="1" stop-color="#60EFFF"/>
</linearGradient>
<linearGradient id="paint6_linear_1_3336" x1="44.7455" y1="26.1812" x2="44.7455" y2="29.9928" gradientUnits="userSpaceOnUse">
<stop stop-color="#00FF87"/>
<stop offset="1" stop-color="#60EFFF"/>
<stop offset="1" stop-color="#60EFFF"/>
</linearGradient>
<linearGradient id="paint7_linear_1_3336" x1="38.898" y1="30.9658" x2="38.898" y2="34.6552" gradientUnits="userSpaceOnUse">
<stop stop-color="#00FF87"/>
<stop offset="1" stop-color="#60EFFF"/>
<stop offset="1" stop-color="#60EFFF"/>
</linearGradient>
<linearGradient id="paint8_linear_1_3336" x1="33.598" y1="36.3604" x2="33.598" y2="39.8778" gradientUnits="userSpaceOnUse">
<stop stop-color="#00FF87"/>
<stop offset="1" stop-color="#60EFFF"/>
<stop offset="1" stop-color="#60EFFF"/>
</linearGradient>
<linearGradient id="paint9_linear_1_3336" x1="28.8661" y1="42.2981" x2="28.8661" y2="45.6585" gradientUnits="userSpaceOnUse">
<stop stop-color="#00FF87"/>
<stop offset="1" stop-color="#60EFFF"/>
<stop offset="1" stop-color="#60EFFF"/>
</linearGradient>
<linearGradient id="paint10_linear_1_3336" x1="24.7712" y1="48.6904" x2="24.7712" y2="51.847" gradientUnits="userSpaceOnUse">
<stop stop-color="#00FF87"/>
<stop offset="1" stop-color="#60EFFF"/>
<stop offset="1" stop-color="#60EFFF"/>
</linearGradient>
<linearGradient id="paint11_linear_1_3336" x1="21.3741" y1="55.4519" x2="21.3741" y2="58.4445" gradientUnits="userSpaceOnUse">
<stop stop-color="#00FF87"/>
<stop offset="1" stop-color="#60EFFF"/>
<stop offset="1" stop-color="#60EFFF"/>
</linearGradient>
<linearGradient id="paint12_linear_1_3336" x1="18.6747" y1="62.5566" x2="18.6747" y2="65.3422" gradientUnits="userSpaceOnUse">
<stop stop-color="#00FF87"/>
<stop offset="1" stop-color="#60EFFF"/>
<stop offset="1" stop-color="#60EFFF"/>
</linearGradient>
<linearGradient id="paint13_linear_1_3336" x1="16.7187" y1="69.936" x2="16.7187" y2="72.5191" gradientUnits="userSpaceOnUse">
<stop stop-color="#00FF87"/>
<stop offset="1" stop-color="#60EFFF"/>
<stop offset="1" stop-color="#60EFFF"/>
</linearGradient>
<linearGradient id="paint14_linear_1_3336" x1="15.5354" y1="77.4563" x2="15.5354" y2="79.8265" gradientUnits="userSpaceOnUse">
<stop stop-color="#00FF87"/>
<stop offset="1" stop-color="#60EFFF"/>
<stop offset="1" stop-color="#60EFFF"/>
</linearGradient>
<linearGradient id="paint15_linear_1_3336" x1="15.5564" y1="92.4946" x2="15.5564" y2="94.869" gradientUnits="userSpaceOnUse">
<stop stop-color="#00FF87"/>
<stop offset="1" stop-color="#60EFFF"/>
<stop offset="1" stop-color="#60EFFF"/>
</linearGradient>
<linearGradient id="paint16_linear_1_3336" x1="16.7186" y1="99.7925" x2="16.7186" y2="102.368" gradientUnits="userSpaceOnUse">
<stop stop-color="#00FF87"/>
<stop offset="1" stop-color="#60EFFF"/>
<stop offset="1" stop-color="#60EFFF"/>
</linearGradient>
<linearGradient id="paint17_linear_1_3336" x1="18.674" y1="106.954" x2="18.674" y2="109.739" gradientUnits="userSpaceOnUse">
<stop stop-color="#00FF87"/>
<stop offset="1" stop-color="#60EFFF"/>
<stop offset="1" stop-color="#60EFFF"/>
</linearGradient>
<linearGradient id="paint18_linear_1_3336" x1="21.3519" y1="113.872" x2="21.3519" y2="116.873" gradientUnits="userSpaceOnUse">
<stop stop-color="#00FF87"/>
<stop offset="1" stop-color="#60EFFF"/>
<stop offset="1" stop-color="#60EFFF"/>
</linearGradient>
<linearGradient id="paint19_linear_1_3336" x1="24.7712" y1="120.486" x2="24.7712" y2="123.643" gradientUnits="userSpaceOnUse">
<stop stop-color="#00FF87"/>
<stop offset="1" stop-color="#60EFFF"/>
<stop offset="1" stop-color="#60EFFF"/>
</linearGradient>
<linearGradient id="paint20_linear_1_3336" x1="28.8661" y1="126.707" x2="28.8661" y2="130.068" gradientUnits="userSpaceOnUse">
<stop stop-color="#00FF87"/>
<stop offset="1" stop-color="#60EFFF"/>
<stop offset="1" stop-color="#60EFFF"/>
</linearGradient>
<linearGradient id="paint21_linear_1_3336" x1="33.598" y1="132.459" x2="33.598" y2="135.977" gradientUnits="userSpaceOnUse">
<stop stop-color="#00FF87"/>
<stop offset="1" stop-color="#60EFFF"/>
<stop offset="1" stop-color="#60EFFF"/>
</linearGradient>
<linearGradient id="paint22_linear_1_3336" x1="38.919" y1="137.682" x2="38.919" y2="141.371" gradientUnits="userSpaceOnUse">
<stop stop-color="#00FF87"/>
<stop offset="1" stop-color="#60EFFF"/>
<stop offset="1" stop-color="#60EFFF"/>
</linearGradient>
<linearGradient id="paint23_linear_1_3336" x1="129.216" y1="26.1594" x2="129.216" y2="29.9711" gradientUnits="userSpaceOnUse">
<stop stop-color="#00FF87"/>
<stop offset="1" stop-color="#60EFFF"/>
<stop offset="1" stop-color="#60EFFF"/>
</linearGradient>
<linearGradient id="paint24_linear_1_3336" x1="122.914" y1="22.0439" x2="122.914" y2="25.9526" gradientUnits="userSpaceOnUse">
<stop stop-color="#00FF87"/>
<stop offset="1" stop-color="#60EFFF"/>
<stop offset="1" stop-color="#60EFFF"/>
</linearGradient>
<linearGradient id="paint25_linear_1_3336" x1="116.239" y1="18.533" x2="116.239" y2="22.557" gradientUnits="userSpaceOnUse">
<stop stop-color="#00FF87"/>
<stop offset="1" stop-color="#60EFFF"/>
<stop offset="1" stop-color="#60EFFF"/>
</linearGradient>
<linearGradient id="paint26_linear_1_3336" x1="109.208" y1="15.8259" x2="109.208" y2="19.9142" gradientUnits="userSpaceOnUse">
<stop stop-color="#00FF87"/>
<stop offset="1" stop-color="#60EFFF"/>
<stop offset="1" stop-color="#60EFFF"/>
</linearGradient>
<linearGradient id="paint27_linear_1_3336" x1="101.941" y1="13.8501" x2="101.941" y2="18.0019" gradientUnits="userSpaceOnUse">
<stop stop-color="#00FF87"/>
<stop offset="1" stop-color="#60EFFF"/>
<stop offset="1" stop-color="#60EFFF"/>
</linearGradient>
<linearGradient id="paint28_linear_1_3336" x1="94.5015" y1="12.6655" x2="94.5015" y2="16.8408" gradientUnits="userSpaceOnUse">
<stop stop-color="#00FF87"/>
<stop offset="1" stop-color="#60EFFF"/>
<stop offset="1" stop-color="#60EFFF"/>
</linearGradient>
<linearGradient id="paint29_linear_1_3336" x1="86.9966" y1="11.1892" x2="86.9966" y2="19.57" gradientUnits="userSpaceOnUse">
<stop stop-color="#00FF87"/>
<stop offset="1" stop-color="#60EFFF"/>
<stop offset="1" stop-color="#60EFFF"/>
</linearGradient>
<linearGradient id="paint30_linear_1_3336" x1="16.1706" y1="84.0166" x2="16.1706" y2="88.3144" gradientUnits="userSpaceOnUse">
<stop stop-color="#00FF87"/>
<stop offset="1" stop-color="#60EFFF"/>
<stop offset="1" stop-color="#60EFFF"/>
</linearGradient>
<linearGradient id="paint31_linear_1_3336" x1="96.9609" y1="53.3777" x2="96.9609" y2="145.298" gradientUnits="userSpaceOnUse">
<stop stop-color="#00FF87"/>
<stop offset="1" stop-color="#60EFFF"/>
<stop offset="1" stop-color="#60EFFF"/>
</linearGradient>
</defs>
</svg>
