<svg width="477" height="379" viewBox="0 0 477 379" fill="none" xmlns="http://www.w3.org/2000/svg">
<path opacity="0.5" d="M246.702 375.617C357.383 375.617 447.108 371.566 447.108 366.568C447.108 361.571 357.383 357.519 246.702 357.519C136.021 357.519 46.2959 361.571 46.2959 366.568C46.2959 371.566 136.021 375.617 246.702 375.617Z" fill="#C9C9C9"/>
<g opacity="0.5">
<path fill-rule="evenodd" clip-rule="evenodd" d="M328.231 116.327C341.681 116.327 355.137 116.086 368.58 116.394C382.299 116.709 395.992 117.749 409.602 119.622C422.034 121.332 434.314 123.733 446.16 128.001C452.978 130.458 459.533 133.47 465.142 138.138C467.382 140.003 469.499 142.127 471.243 144.453C475.08 149.57 475.083 155.112 471.619 160.5C469.894 163.183 467.644 165.379 465.158 167.342C459.909 171.489 454.074 174.679 448.1 177.619C436.349 183.403 424.153 188.155 412.024 193.06C403.658 196.444 395.261 199.75 386.933 203.225C384.166 204.379 381.537 205.886 378.915 207.357C377.646 208.069 376.435 208.961 375.382 209.965C373.2 212.045 372.768 214.374 374.2 217.008C375.092 218.65 376.23 220.21 377.501 221.582C379.4 223.633 381.479 225.522 383.543 227.414C387.464 231.011 391.493 234.494 395.361 238.148C401.498 243.944 406.952 250.315 411.055 257.745C414.232 263.498 416.546 269.538 416.905 276.187C417.294 283.395 415.172 289.707 410.148 294.973C407.015 298.259 403.277 300.704 399.251 302.732C392.15 306.309 384.598 308.642 376.948 310.676C364.277 314.045 351.381 316.222 338.391 317.922C328.318 319.241 318.215 320.312 308.069 320.619C299.606 320.876 291.123 320.65 282.653 320.458C277.477 320.343 272.297 320.024 267.139 319.56C257.659 318.706 248.186 317.755 238.726 316.699C229.331 315.65 220.007 314.12 210.791 311.977C202.595 310.071 194.528 307.778 186.985 303.942C182.656 301.74 178.558 299.18 175.227 295.595C173.903 294.17 172.705 292.588 171.673 290.938C169.633 287.675 169.29 284.095 170.341 280.432C170.859 278.625 171.644 276.894 172.316 275.132C172.74 274.022 173.263 272.941 173.594 271.805C174.172 269.819 173.746 268.638 171.835 267.904C170.098 267.238 168.21 266.678 166.37 266.62C161.828 266.474 157.267 266.477 152.731 266.727C146.722 267.06 140.732 267.73 134.728 268.172C126.141 268.805 117.555 269.516 108.955 269.908C101.544 270.246 94.1077 270.419 86.6927 270.244C75.0345 269.97 63.5111 268.601 52.473 264.495C47.0612 262.482 41.8939 259.972 37.4129 256.308C35.265 254.551 33.2197 252.552 31.5625 250.339C28.0427 245.637 27.4161 240.382 29.4251 234.827C30.8287 230.946 33.1427 227.63 35.7614 224.504C40.6452 218.673 46.4373 213.804 52.3304 209.056C58.928 203.74 65.6639 198.592 72.1895 193.19C75.796 190.205 79.1663 186.921 82.4973 183.624C83.8708 182.265 85.0374 180.619 85.9924 178.93C88.5068 174.484 87.5144 171.055 83.112 168.496C79.7321 166.531 75.9918 165.588 72.1837 164.961C65.8308 163.916 59.4425 163.078 53.1008 161.971C47.0111 160.909 41.1389 159.059 35.5664 156.346C19.0125 148.287 8.96021 135.15 5.22187 117.206C3.27485 107.859 4.55436 98.7416 7.36775 89.688C11.2988 77.0391 18.6333 66.9281 28.7646 58.4752C39.0562 49.8887 50.7861 44.2237 63.2641 39.7666C72.7387 36.3827 82.4556 34.1447 92.4416 33.0099C101.761 31.9514 111.067 30.7577 120.401 29.8466C127.366 29.1666 134.366 28.8466 141.35 28.3587C151.488 27.6502 161.64 27.4469 171.799 27.5436C195.008 27.765 217.886 30.4812 240.266 36.8105C247.145 38.7558 253.907 41.0693 260.227 44.4443C263.179 46.0208 266.033 47.8421 268.709 49.8479C270.589 51.2572 272.279 53.0216 273.729 54.8799C277.069 59.1602 277.75 63.9997 276.116 69.1649C275.047 72.5435 273.35 75.6163 271.136 78.3429C268.137 82.0356 264.964 85.5882 261.842 89.1797C259.545 91.8208 257.109 94.3484 254.927 97.08C253.541 98.8136 252.292 100.728 251.362 102.738C249.565 106.617 250.635 109.654 254.321 111.83C257.195 113.527 260.393 114.33 263.633 114.941C270.747 116.282 277.951 116.71 285.167 116.716C296.582 116.726 307.996 116.562 319.411 116.482C322.351 116.461 325.291 116.479 328.231 116.479V116.327Z" fill="#F1ECE8"/>
</g>
<path fill-rule="evenodd" clip-rule="evenodd" d="M298.273 346.838C299.156 347.165 299.867 347.966 300.657 348.548C300.598 348.865 300.54 349.182 300.481 349.5C299.156 349.843 297.81 350.544 296.51 350.467C291.226 350.15 287.017 352.216 283.383 355.836C283.139 356.079 282.762 356.193 282.434 356.342C282.335 356.387 282.197 356.349 282.017 356.349C280.339 355.188 281.074 353.806 281.858 352.546C284.518 348.27 293.576 345.099 298.273 346.838ZM299.99 337.101C300.43 337.293 300.924 337.534 301.193 337.901C301.527 338.354 301.909 339.028 301.792 339.483C301.681 339.91 300.956 340.45 300.488 340.462C299.292 340.493 298.089 340.242 296.887 340.133C293.758 339.85 290.587 339.14 287.507 339.417C283.178 339.806 279.281 341.782 276.345 345.071C273.926 347.781 271.857 350.805 269.623 353.681C268.935 354.568 268.833 356.095 266.988 355.972C265.922 354.534 266.383 352.959 267.079 351.61C271.468 343.094 277.79 336.878 287.574 335.067C291.919 334.262 296.024 335.38 299.99 337.101ZM351.607 347.159C355.893 347.421 358.684 349.662 358.852 352.998C357.501 354.136 356.185 353.287 355.161 352.634C351.011 349.989 347.091 350.444 343.153 353.009C342.607 353.364 341.824 353.386 340.739 353.669C341.468 349.16 345.722 346.798 351.607 347.159ZM248.663 339.371C248.779 339.41 248.907 339.421 249.012 339.477C250.27 340.15 252.151 340.594 251.62 342.467C251.099 344.299 249.514 343.408 248.218 343.157C241.992 341.951 236.284 342.611 232.064 348.102C231.395 348.972 230.98 350.051 230.266 350.871C229.794 351.411 228.996 351.66 228.189 352.128C227.192 349.44 228.399 347.611 229.484 345.923C233.178 340.18 242.173 337.176 248.663 339.371ZM361.699 337.927C364.842 340.282 367.889 342.815 369.562 346.495C369.802 347.02 369.444 347.811 369.355 348.544C367.379 348.814 366.481 347.571 365.475 346.567C363.653 344.752 361.987 342.757 360.017 341.119C353.007 335.287 344.732 335.955 338.779 342.842C336.948 344.961 335.465 347.374 333.815 349.647C333.14 350.577 332.857 352.018 331.181 351.698C330.423 347.686 335.316 340.691 341.682 336.655C347.797 332.777 355.383 333.192 361.699 337.927ZM303.769 324.795C305.317 325.358 306.971 326.111 306.813 328.792C305.55 328.623 304.414 328.49 303.282 328.318C298.969 327.66 294.677 326.63 290.342 326.395C278.952 325.779 270.526 331.054 264.461 340.466C262.876 342.923 261.589 345.574 259.993 348.024C259.261 349.148 258.115 349.998 257.156 350.973C256.883 350.834 256.61 350.694 256.337 350.555C256.416 349.546 256.23 348.418 256.615 347.546C261.025 337.581 267.047 329.004 277.462 324.585C286.215 320.871 295.04 321.618 303.769 324.795ZM358.914 321.018C361.69 321.675 364.455 323.089 366.789 324.763C372.682 328.989 376.861 334.747 380.044 341.199C380.699 342.527 380.836 344.11 381.205 345.551C379.151 346.608 378.139 345.746 377.346 344.601C376.232 342.99 375.215 341.311 374.198 339.635C371.697 335.517 368.709 331.802 364.971 328.741C361.549 325.939 357.664 324.271 353.145 324.441C350.573 324.538 347.966 324.466 345.441 324.874C338.827 325.943 334.114 330.052 330.424 335.27C327.676 339.155 325.459 343.414 322.984 347.494C322.267 348.676 321.478 349.814 320.723 350.973C320.329 350.813 319.936 350.653 319.542 350.492C319.711 349.22 319.616 347.838 320.091 346.691C323.509 338.422 328.13 330.906 335.495 325.584C342.502 320.52 350.507 319.03 358.914 321.018ZM242.936 328.03C246.125 328.589 249.173 330.021 252.248 331.163C253.015 331.448 253.771 332.037 254.278 332.69C254.661 333.184 254.947 334.171 254.707 334.631C254.456 335.111 253.449 335.559 252.901 335.435C251.242 335.061 249.627 334.454 248.028 333.848C241.43 331.346 234.728 330.741 227.911 332.75C220.934 334.806 215.806 339.036 213.106 346.039C212.707 347.075 212.266 348.098 211.763 349.084C211.617 349.368 211.185 349.5 210.712 349.818C208.785 348.666 209.301 347.178 209.672 345.745C211.371 339.19 215.611 334.659 221.259 331.519C228.02 327.76 235.39 326.707 242.936 328.03ZM366.97 308.31C378.503 314.678 386.427 324.295 391.121 336.587C391.597 337.834 391.462 339.316 391.611 340.689L390.388 341.221C389.465 340.176 388.365 339.241 387.655 338.067C386.131 335.543 384.776 332.913 383.407 330.298C379.284 322.425 373.099 316.495 365.585 312.059C355.265 305.966 344.811 306.984 334.888 312.978C324.257 319.4 317.561 329.123 313.507 340.768C312.981 342.278 312.566 343.832 311.949 345.301C311.606 346.115 310.95 346.797 310.457 347.508C308.555 346.478 309.192 345.185 309.443 344.046C311.39 335.206 315.484 327.422 321.251 320.534C327.639 312.907 335.294 307.225 345.258 305.113C352.922 303.489 360.201 304.572 366.97 308.31ZM260.124 321.237C261.309 321.857 262.479 322.586 263.467 323.476C264.099 324.046 264.385 325.004 264.816 325.769C262.957 327.119 261.634 326.219 260.362 325.586C253.062 321.96 245.419 319.536 237.304 318.607C231.634 317.957 226.017 318.148 220.611 319.988C211.282 323.163 206.017 329.916 204.272 339.565C204.032 340.895 203.815 342.232 203.504 343.545C203.198 344.841 202.994 346.538 201.213 346.336C199.315 346.122 199.665 344.347 199.797 343.088C200.475 336.615 202.305 330.548 206.481 325.409C211.628 319.075 218.425 315.601 226.376 314.743C238.227 313.466 249.525 315.689 260.124 321.237ZM187.784 295.723C189.602 296.392 191.391 297.275 192.993 298.355C194.106 299.106 194.879 300.364 195.83 301.423C194.142 302.804 193.15 301.724 192.137 301.215C181.012 295.623 169.549 295.229 158.032 299.522C145.269 304.279 138.525 314.118 136.162 327.216C135.315 331.909 134.804 336.661 134.094 341.379C133.902 342.646 133.874 344.048 132.006 345.197C131.786 343.764 131.426 342.645 131.473 341.544C131.83 333.316 132.896 325.19 135.822 317.442C140.76 304.364 150.656 297.118 163.953 294.269C171.97 292.552 180 292.858 187.784 295.723ZM186.033 340.377C186.369 340.52 186.522 341.101 186.966 341.813C186.094 342.935 185.287 344.071 184.354 345.091C184.173 345.289 183.389 345.191 183.084 344.958C181.733 343.929 182.521 342.757 183.124 341.764C183.751 340.728 184.626 339.779 186.033 340.377ZM191.221 314.14C192.273 314.867 193.6 315.589 192.968 318.028C190.546 317.243 188.264 316.77 186.224 315.793C179.544 312.596 173.07 313.397 166.801 316.692C157.569 321.544 151.877 329.151 149.639 339.375C149.252 341.139 149.605 343.318 147.38 344.812C147.053 343.848 146.64 343.123 146.578 342.369C146.197 337.721 147.209 333.294 149.367 329.228C154.443 319.672 162.048 313.104 172.704 310.453C179.417 308.783 185.594 310.248 191.221 314.14ZM123.761 337.813C122.11 338.553 121.009 339.232 119.813 339.535C118.311 339.915 116.737 340.077 115.184 340.173C112.943 340.312 111.32 341.186 110.368 343.342C110.097 343.955 109.29 344.329 108.727 344.812C108.212 344.099 107.364 343.438 107.244 342.663C106.945 340.734 107.886 339.162 109.298 337.88C112.519 334.956 119.212 334.673 123.761 337.813ZM188.121 327.374C189.175 327.438 190.178 328.307 191.205 328.807L191.078 330.098C189.739 330.374 188.412 330.778 187.06 330.902C184.401 331.146 181.699 331.032 179.068 331.428C173.487 332.27 169.895 335.568 168.191 340.96C167.852 342.032 167.435 343.078 166.949 344.427C164.671 342.961 164.866 341.298 165.198 339.617C166.355 333.774 171.915 328.314 178.313 327.357C181.516 326.878 184.858 327.176 188.121 327.374ZM115.097 321.199C118.191 321.888 121.185 323.081 124.166 324.201C125.197 324.589 126.051 325.455 126.844 326.481C124.208 327.428 121.711 327.264 119.209 326.77C117.162 326.366 115.136 325.845 113.078 325.506C102.621 323.788 93.2058 329.55 89.7444 339.725C89.402 340.731 88.9776 341.707 88.518 342.887C86.245 341.996 86.3378 340.555 86.3995 339.219C86.5826 335.206 88.1357 331.667 90.9239 328.912C97.6461 322.271 105.624 319.09 115.097 321.199ZM125.711 309.217C127.066 310.213 128.263 311.484 129.311 312.803C129.794 313.411 129.738 314.444 129.927 315.283C129.595 315.447 129.264 315.61 128.932 315.773C127.871 315.004 126.81 314.233 125.747 313.465C120.279 309.511 114.206 306.863 107.455 306.637C91.6855 306.11 78.6034 316.565 76.3904 331.907C76.0429 334.316 75.6408 336.726 75.0744 339.091C74.8152 340.177 74.0959 341.153 73.6164 342.117C71.5159 341.566 71.2667 340.264 71.3643 338.871C72.2385 326.351 76.5076 315.6 87.4629 308.349C98.9993 300.713 114.569 301.028 125.711 309.217ZM403.559 283.843C418.494 285.776 430.938 297.913 433.247 312.869C434.6 321.629 432.134 329.665 427.892 337.228C427.395 338.112 426.505 338.773 425.549 339.806C424.182 337.785 424.723 336.098 425.155 334.552C425.846 332.073 426.814 329.674 427.594 327.219C433.246 309.409 423.131 291.716 404.957 287.721C399.544 286.531 394.29 287.425 389.176 289.448C387.791 289.995 386.319 290.319 384.767 290.782C384.263 288.119 385.907 287.433 387.223 286.715C392.333 283.925 397.869 283.107 403.559 283.843ZM395.352 299.386C413.449 300.39 422.16 316.773 414.841 330.882C413.643 333.192 412.713 335.829 409.872 337.111C408.173 335.756 408.796 334.401 409.22 333.189C409.86 331.355 410.677 329.581 411.442 327.792C416.659 315.612 408.61 303.685 394.557 302.815C392.847 302.709 391.129 302.747 389.416 302.681C389.224 302.674 389.042 302.422 388.528 302.041C389.02 301.461 389.402 300.569 389.997 300.395C391.737 299.886 393.584 299.287 395.352 299.386ZM391.448 313.282C395.476 313.714 398.659 315.559 400.421 319.343C402.099 322.949 400.998 326.292 399.071 329.401C398.615 330.137 397.457 330.439 396.606 330.95C395.361 328.937 396.02 327.44 396.467 325.927C398.155 320.22 396.323 317.345 390.474 316.475C389.873 316.386 389.267 316.275 388.694 316.081C388.383 315.975 388.14 315.671 387.757 315.372C388.28 313.353 389.861 313.111 391.448 313.282ZM238.717 263.731C245.788 265.297 252.099 268.45 257.52 273.232C259.053 274.583 260.291 276.324 261.437 278.036C262.058 278.965 262.783 280.204 260.963 281.876C259.886 280.842 258.838 279.903 257.866 278.891C250.405 271.117 241.392 266.71 230.52 266.597C218.973 266.477 209.688 272.837 205.537 283.666C202.13 292.556 201.552 301.75 202.948 311.119C203.316 313.586 204.144 316.094 202.751 319.013C201.929 318.406 201.084 318.085 200.775 317.487C200.281 316.532 199.995 315.41 199.881 314.331C198.823 304.264 199 294.222 202.142 284.531C205.752 273.402 212.996 265.773 224.85 263.363C229.458 262.426 234.127 262.714 238.717 263.731ZM293.343 303.391C298.764 303.999 303.886 305.256 308.429 308.346C309.924 309.363 311.334 310.627 312.451 312.045C313.179 312.968 313.308 314.374 313.761 315.729C311.262 316.65 310.06 315.285 308.895 314.137C305.667 310.954 301.807 309.065 297.503 307.84C289.013 305.424 281.648 307.001 275.518 313.645C274.068 315.217 272.454 316.635 270.792 318.243C269.672 316.379 270.381 315.181 271.169 314.118C276.709 306.656 283.655 302.304 293.343 303.391ZM321.231 305.712C321.894 306.667 321.921 308.06 322.24 309.238C319.819 310.233 318.764 308.944 317.719 307.761C315.774 305.561 313.918 303.284 311.954 301.103C301.314 289.289 280.221 291.159 271.459 301.836C268.597 305.325 266.018 309.044 263.305 312.656C262.478 313.759 262.204 315.454 259.42 315.547C259.75 314.072 259.79 312.861 260.279 311.871C266.425 299.429 275.981 291.528 290.13 289.661C304.298 287.792 313.733 294.911 321.231 305.712ZM252.919 283.809C253.594 284.362 253.938 285.313 254.41 286.039C253.066 287.654 251.792 287.179 250.574 286.569C248.827 285.695 247.127 284.734 245.401 283.82C233.911 277.737 220.83 282.575 216.151 294.654C214.189 299.719 213.439 304.977 213.765 310.39C213.849 311.797 214.266 313.277 212.505 314.777C211.959 313.662 211.345 312.806 211.107 311.856C208.547 301.692 214.036 287.248 222.636 281.429C232.126 275.009 244.226 276.682 252.919 283.809ZM330.801 301.552C331.067 302.473 331.136 303.488 331.091 304.45C331.066 304.993 330.622 305.516 330.393 305.993C328.362 306.165 327.684 304.719 327.043 303.451C326.049 301.483 325.152 299.452 324.388 297.382C319.115 283.1 302.116 273.269 284.033 279.697C271.093 284.296 262.097 293.197 256.336 305.56C255.353 307.67 254.574 309.877 253.622 312.003C253.345 312.621 252.793 313.114 251.803 314.392C251.566 312.766 251.204 311.863 251.368 311.068C251.736 309.272 252.205 307.461 252.912 305.774C258.758 291.827 268.564 281.745 282.701 276.449C303.462 268.673 324.488 279.692 330.801 301.552ZM245.889 292.07C246.875 292.321 247.747 293.03 248.629 293.506C248.185 295.421 246.943 295.535 245.732 295.551C243.664 295.578 241.594 295.474 239.525 295.486C231.497 295.535 225.635 300.731 224.523 308.697C224.349 309.938 223.962 311.149 223.562 312.852C220.89 311.087 221.188 309.111 221.393 307.384C222.216 300.446 226.069 295.719 232.325 292.912C236.729 290.936 241.297 290.901 245.889 292.07ZM246.317 303.529C243.472 306.672 239.136 306.657 236.447 309.386C235.059 306.799 235.214 306.084 237.084 304.484C239.673 302.267 243.27 301.745 246.317 303.529ZM365.326 263.461C375.334 268.86 379.896 278.369 381.627 289.201C382.332 293.611 381.763 298.236 381.688 302.762C381.672 303.721 381.461 304.772 381.013 305.601C380.608 306.349 379.755 306.85 379.101 307.461C378.575 306.711 377.658 305.991 377.597 305.204C377.405 302.765 377.4 300.29 377.575 297.847C378.021 291.568 376.736 285.676 374.222 279.956C369.899 270.119 362.049 264.937 351.997 262.715C343.824 260.908 335.725 261.508 328.007 264.723C324.689 266.106 321.745 268.404 318.64 270.303C317.74 270.853 316.871 271.457 315.919 272.082C314.668 270.395 315.562 269.169 316.477 268.345C318.64 266.396 320.772 264.202 323.321 262.933C337.356 255.947 351.55 256.03 365.326 263.461ZM362.607 280.51C367.12 285.535 369.013 291.538 368.864 298.229C368.831 299.735 368.236 301.229 367.789 303.225C365.167 301.692 365.314 299.819 365.072 298.191C364.818 296.482 364.932 294.712 364.619 293.019C362.787 283.124 353.886 275.369 343.748 274.762C337.268 274.375 331.121 275.522 325.444 278.866C324.563 279.386 323.576 279.719 321.854 280.489C322.27 278.89 322.25 277.965 322.696 277.465C323.498 276.565 324.502 275.778 325.555 275.192C337.011 268.819 353.115 269.937 362.607 280.51ZM138.406 293.215C136.787 293.215 135.239 293.229 133.691 293.212C130.035 293.176 128.823 294.546 129.352 298.15C129.492 299.107 129.661 300.059 129.769 301.02C129.793 301.23 129.614 301.463 129.527 301.685C126.799 301.175 125.472 299.047 125.716 295.575C125.97 291.971 128.824 289.159 132.402 288.989C135.558 288.838 137.878 290.316 138.406 293.215ZM130.327 256.38C136.21 258.49 141.122 262.008 144.757 267.18C145.65 268.451 146.649 269.782 145.778 271.603C143.756 271.419 142.548 269.988 141.138 268.861C138.282 266.578 135.542 264.081 132.446 262.18C123.805 256.878 115.577 259.041 110.283 267.762C105.998 274.82 105.019 282.403 106.83 290.412C107.343 292.681 107.896 294.945 108.292 297.237C108.415 297.949 108.077 298.741 107.949 299.496C107.683 299.584 107.417 299.672 107.151 299.76C106.326 298.664 105.222 297.683 104.723 296.454C99.8019 284.342 100.969 272.879 109.066 262.524C113.87 256.381 121.224 253.117 130.327 256.38ZM338.993 283.233C344.215 283.517 348.436 285.851 350.641 290.766C351.837 293.429 352.969 296.448 350.18 299.76C349.335 298.669 348.599 297.943 348.143 297.069C347.698 296.218 347.541 295.215 347.252 294.281C345.468 288.504 340.709 285.72 334.804 286.995C333.976 287.174 333.152 287.393 332.315 287.502C331.988 287.545 331.629 287.337 330.718 287.089C332.754 283.491 335.858 283.063 338.993 283.233ZM343.822 298.171C341.238 298.533 336.999 296.807 335.942 294.962C335.355 293.939 336.021 292.978 337.407 292.847C340.172 292.585 343.331 295.207 343.822 298.171ZM128.288 272.464C131.769 272.741 134.922 274.085 137.73 276.106C138.68 276.79 139.22 278.056 139.947 279.056C139.768 279.319 139.589 279.582 139.411 279.845C138.175 279.58 136.907 279.42 135.711 279.029C133.63 278.35 131.629 277.401 129.532 276.79C124.027 275.186 119.006 278.271 118.301 284.054C117.92 287.171 118.473 290.409 118.652 293.59C118.738 295.113 118.934 296.631 119.084 298.197C117.011 298.406 116.558 297.143 116.087 296.06C114.056 291.386 113.544 286.501 114.825 281.579C116.339 275.765 122.087 271.97 128.288 272.464ZM192.369 251.943C198.721 254.293 203.688 258.578 207.734 263.946C208.709 265.241 209.857 266.632 209.041 268.909C206.501 268.446 205.04 267.001 203.527 265.603C201.109 263.368 198.8 260.973 196.169 259.021C186.683 251.984 173.959 252.272 165.414 259.625C161.774 262.759 158.841 266.49 156.725 270.847C154.239 275.966 152.828 281.36 152.393 287.034C152.276 288.561 151.927 290.07 151.671 291.674C149.181 291.372 148.745 289.838 148.819 288.217C148.958 285.174 149.047 282.089 149.628 279.114C151.373 270.181 155.665 262.581 162.587 256.698C171.49 249.133 181.598 247.959 192.369 251.943ZM186.787 266.74C191.025 267.945 194.234 270.832 197.096 274.068C197.692 274.742 197.952 275.715 198.527 276.874C196.157 277.68 194.863 276.612 193.561 275.806C191.694 274.648 189.946 273.296 188.073 272.15C183.064 269.087 178.05 269.423 173.456 273.077C170.822 275.173 168.844 277.796 167.564 280.904C166.961 282.367 166.56 283.913 166.064 285.42C165.673 286.609 165.823 288.572 163.935 288.149C162.304 287.784 162.713 285.98 162.78 284.688C163.256 275.493 170.856 267.061 179.96 265.956C182.179 265.687 184.603 266.119 186.787 266.74ZM191.205 281.576C185.741 282.991 180.909 284.243 176.006 285.513C175.02 284.55 175.388 283.528 176.085 282.541C178.621 278.946 186.891 278.071 191.205 281.576ZM434.669 249.921C435.432 254.283 435.305 258.7 434.3 263.056C432.718 269.909 430.196 276.379 426.391 282.309L426.291 282.466C425.356 283.933 424.392 285.528 422.027 285.037C421.35 283.197 422.374 281.737 423.041 280.216C425.201 275.29 427.572 270.444 429.482 265.423C431.798 259.329 432.167 252.996 430.407 246.658C426.767 233.551 412.773 224.756 399.391 227.324C396.075 227.96 392.904 229.353 389.667 230.403C388.791 230.687 387.922 230.99 386.612 231.431C386.454 228.739 387.961 227.841 389.329 227.289C392.255 226.109 395.248 224.886 398.331 224.345C414.952 221.427 431.761 233.286 434.669 249.921ZM412.253 245.435C419.287 249.985 422.261 257.689 420.319 265.829C419.39 269.721 417.337 273.04 415.048 276.227C414.474 277.027 413.506 277.547 412.719 278.196C412.444 278.04 412.17 277.886 411.895 277.73C412.159 276.517 412.284 275.252 412.719 274.103C413.322 272.508 414.104 270.973 414.903 269.46C419.879 260.04 416.705 248.442 402.957 245.049C399.755 244.259 396.461 243.84 393.113 244.567C392.022 244.804 390.82 244.53 388.913 244.462C390.681 241.935 392.561 241.614 394.323 241.422C400.734 240.724 406.796 241.905 412.253 245.435ZM399.984 259.381C402.921 262.053 403.598 265.638 401.789 269.648C401.198 270.958 400.472 272.273 399.52 273.34C398.989 273.936 397.869 274.027 397.014 274.346C396.792 273.487 396.271 272.575 396.417 271.781C396.653 270.5 397.337 269.301 397.817 268.062C399.469 263.796 397.598 260.847 392.974 260.573C390.921 260.45 388.855 260.552 386.872 260.552C386.081 258.808 387.162 258.143 388.278 257.563C391.694 255.794 396.958 256.628 399.984 259.381ZM266.909 245.388C275.156 246.796 281.035 254.799 280.985 264.17C280.976 266.073 281.318 268.145 279.343 270.495C278.666 269.233 278.071 268.485 277.851 267.637C277.481 266.207 277.355 264.713 277.113 263.248C276.931 262.151 276.809 261.035 276.524 259.965C273.929 250.221 267.255 247.05 258.083 249.09C253.659 250.074 250.138 252.757 246.966 255.939C246.048 256.861 245.095 257.749 244.172 258.637C242.787 257.547 243.196 256.61 243.747 255.814C249.546 247.439 258.62 243.974 266.909 245.388ZM264.108 260.608C267.424 261.75 269.879 265.038 269.825 269.34C268.201 268.081 266.951 267.379 266.049 266.36C263.949 263.982 261.544 262.817 258.383 263.592C258.073 263.669 257.7 263.476 257.38 263.413C256.711 262.21 257.384 261.499 258.231 260.982C260.107 259.837 262.079 259.908 264.108 260.608ZM294.21 260.13C294.616 261.911 294.808 263.765 294.874 265.593C294.914 266.705 294.521 267.833 294.322 268.955C292.107 268.789 291.725 267.414 291.389 266.14C290.89 264.249 290.533 262.319 290.14 260.4C287.334 246.689 274.648 235.972 261.435 236.763C248.457 237.538 238.748 243.563 233.589 256.033C233.136 257.126 233.081 259.292 231.255 258.655C229.361 257.994 230.342 256.101 230.744 254.792C232.535 248.961 236.08 244.255 240.948 240.791C263.905 224.452 289.118 237.759 294.21 260.13ZM353.359 208.049C366.149 209.746 376.314 215.855 381.572 228.125C386.707 240.112 384.226 251.369 376.953 261.804C376.538 262.397 375.969 262.894 375.416 263.37C375.167 263.584 374.779 263.636 373.967 263.949C373.431 261.256 374.624 259.336 375.583 257.416C377.675 253.228 379.394 248.948 379.926 244.241C381.438 230.884 374.884 219.336 362.591 214.054C351.58 209.322 341.152 210.347 331.453 217.577C330.67 218.161 329.859 218.708 329.036 219.234C328.864 219.343 328.584 219.279 328.036 219.318C328.082 218.647 327.89 217.83 328.212 217.427C329.423 215.916 330.631 214.316 332.147 213.15C338.43 208.317 345.807 207.047 353.359 208.049ZM302.657 246.252C310.734 246.75 314.792 254.819 314.063 260.997C314.011 261.436 313.649 261.839 313.354 262.409C311.132 262.174 310.698 260.707 310.177 259.373C309.603 257.904 309.227 256.351 308.572 254.921C306.648 250.726 303.22 249.16 298.656 250.231C297.632 250.471 296.579 250.594 295.541 250.77C294.755 248.792 295.755 247.713 296.987 247.293C298.792 246.677 300.786 246.137 302.657 246.252ZM313.55 234.616C322.007 239.262 326.937 249.749 323.387 256.248C321.332 254.162 320.793 251.781 320.102 249.489C319.035 245.945 317.529 242.69 314.703 240.16C310.179 236.11 305.043 234.702 299.272 236.715C296.552 237.663 293.998 239.096 291.375 240.324C290.287 240.833 289.187 241.663 288.325 240.017C292.179 232.807 305.194 230.026 313.55 234.616ZM367.059 236.04C368.625 241.805 367.207 247.16 364.763 252.353C364.512 252.886 364.066 253.346 363.642 253.772C363.403 254.012 363.024 254.112 362.615 254.323C360.982 253.555 361.315 252.203 361.642 250.919C362.154 248.91 362.804 246.935 363.286 244.919C364.035 241.789 364.222 238.666 363.1 235.542C360.157 227.339 352.321 223.611 343.586 226.301C341.809 226.848 340.023 227.363 338.093 227.937C337.752 225.636 339.15 225.121 340.244 224.52C348.872 219.776 363.389 222.53 367.059 236.04ZM340.717 247.922C340.799 250.855 340.723 251.105 339.07 253.552C337.116 252.705 336.801 251.155 336.533 249.559C336.047 246.654 335.726 243.704 335.008 240.856C331.719 227.809 320.832 218.851 307.487 218.34C302.03 218.131 296.86 219.634 292.012 222.18C287.309 224.65 283.232 227.942 279.474 231.686C278.468 232.688 277.397 234.955 275.744 233.294C274.352 231.896 276.068 230.306 277.08 229.215C283.841 221.933 291.881 216.978 301.798 215.171C321.326 211.612 340.134 227.128 340.717 247.922ZM224.126 247.572C225.046 247.831 225.82 248.628 226.661 249.178C226.615 249.497 226.568 249.815 226.522 250.133C225.062 250.47 223.619 250.939 222.141 251.102C220.822 251.246 219.466 251.002 218.127 251.018L217.613 251.024C214.985 251.056 212.385 251.153 210.121 252.959C209.632 253.348 208.625 253.067 207.858 253.096C207.882 252.293 207.588 251.199 207.991 250.744C209.018 249.583 210.214 248.342 211.595 247.788C215.69 246.143 219.946 246.394 224.126 247.572ZM353.54 236.257C355.911 238.996 356.559 245.994 354.66 249.108C354.39 249.553 353.749 249.769 353.286 250.087C351.652 249.006 351.946 247.453 351.859 246.049C351.755 244.35 351.849 242.626 351.6 240.95C351.184 238.146 350.175 237.24 347.417 236.698C346.433 236.505 345.46 236.26 343.822 235.888C347.433 232.992 351.087 233.426 353.54 236.257ZM238.178 218.776C241.582 221.109 244.168 224.183 246.213 227.731C247.293 229.604 247.275 229.809 246.688 232.188C244.997 232.544 243.995 231.437 243.04 230.341C241.995 229.14 241.048 227.854 240.028 226.63C233.096 218.321 223.855 215.743 213.643 216.926C197.816 218.758 188.17 228.753 181.767 242.592C180.924 244.416 180.741 246.648 177.905 248.547C177.86 246.66 177.53 245.438 177.863 244.437C178.863 241.426 179.782 238.308 181.336 235.576C188.012 223.839 197.46 215.532 211.16 213.329C220.743 211.788 229.942 213.129 238.178 218.776ZM222.965 232.653C224.879 233.443 226.819 234.196 228.654 235.145C229.754 235.713 230.672 236.628 231.671 237.387C231.574 237.672 231.477 237.957 231.38 238.241C230.502 238.296 229.576 238.557 228.754 238.37C226.262 237.802 223.729 237.265 221.355 236.351C212.808 233.061 202.813 235.166 196.666 243.724C196.345 244.17 195.798 244.454 195.027 245.081C193.606 242.675 194.49 241.064 195.542 239.578C197.938 236.192 201.255 233.916 205.1 232.496C211.042 230.302 217.035 230.205 222.965 232.653Z" fill="#00FF87"/>
<path fill-rule="evenodd" clip-rule="evenodd" d="M361.629 138.034C362.711 138.395 369.305 132.455 381.411 120.212L405.099 125.521L426.3 124.396C439.883 119.782 450.392 113.819 457.826 106.507C468.977 95.5394 474.374 80.6685 471.038 61.6261C467.701 42.5837 448.549 26.7884 434.554 22.6204C420.559 18.4524 399.865 14.8513 381.411 25.1682C362.957 35.4852 352.743 50.5339 350.868 64.3892C348.992 78.2445 351.473 93.6286 368.208 110.57C368.208 110.57 361.629 136.798 361.629 138.034Z" fill="white"/>
<path fill-rule="evenodd" clip-rule="evenodd" d="M107.467 244.598L109.778 220.712C125.35 203.264 126.901 186.159 114.432 169.397C95.729 144.255 57.5459 168.74 55.433 173.017C53.32 177.294 22.8782 207.588 61.336 232.911C69.447 238.252 95.0741 231.137 95.0741 231.137C97.3236 233.172 101.455 237.659 107.467 244.598Z" fill="white"/>
<path fill-rule="evenodd" clip-rule="evenodd" d="M160.734 102.511L161.956 87.5346C175.007 79.1655 182.208 69.2465 183.557 57.7777C185.582 40.5744 160.734 20.7695 134.465 25.5217C108.195 30.2739 94.1708 41.2032 90.8739 62.5055C87.577 83.8079 120.564 97.7255 142.378 93.2478C148.505 91.8691 150.548 91.2148 150.548 91.2148C152.279 92.5701 155.674 96.3356 160.734 102.511Z" fill="white"/>
<path fill-rule="evenodd" clip-rule="evenodd" d="M363.363 134.687C364.598 133.611 365.28 133.024 365.955 132.427C370.531 128.38 375.099 124.321 379.687 120.285C381.194 118.958 382.674 118.148 384.902 119.114C397.408 124.536 410.427 125.876 423.786 123.302C438.162 120.531 450.427 113.918 459.816 102.52C475.052 84.0254 474.729 58.8135 459.119 40.6285C453.174 33.7035 445.924 28.5423 437.538 24.9969C427.215 20.6327 416.466 18.9501 405.277 20.0289C388.88 21.6095 374.752 27.9284 363.824 40.3899C344.825 62.0575 348.814 91.5653 368.484 108.599C369.989 109.903 370.438 111.149 369.797 113.117C367.874 119.013 366.141 124.971 364.35 130.909C364.04 131.934 363.805 132.982 363.363 134.687ZM411.307 127.32C402.305 127.033 393.632 125.455 385.34 122.055C383.473 121.29 382.212 121.443 380.715 122.825C374.956 128.143 369.081 133.335 363.252 138.576C362.873 138.916 362.559 139.398 362.119 139.581C361.603 139.795 360.854 139.982 360.442 139.755C360.053 139.542 359.799 138.774 359.796 138.249C359.792 137.561 360.066 136.862 360.267 136.181C362.251 129.453 364.242 122.727 366.236 116.001C366.467 115.221 366.727 114.45 366.976 113.675C367.496 112.065 367.121 110.892 365.782 109.669C360.304 104.661 356.062 98.7205 353.112 91.8986C344.932 72.9793 349.117 51.6101 364.036 36.3813C373.375 26.848 384.767 21.0387 397.802 18.525C415.89 15.0368 432.899 18.0142 448.429 28.0102C460.652 35.8766 469.035 46.79 472.276 61.0919C476.054 77.7658 471.673 92.5707 460.665 105.4C451.087 116.564 438.67 122.995 424.32 125.727C420.037 126.542 415.648 126.805 411.307 127.32Z" fill="#BEBEBE"/>
<path fill-rule="evenodd" clip-rule="evenodd" d="M77.1092 62.5308C77.2248 62.5427 77.3349 62.6074 77.4423 62.7031C77.9693 63.1745 77.9072 64.0781 77.2656 64.3713C77.2184 64.3927 77.17 64.41 77.1201 64.421C74.7189 64.9694 72.234 65.2279 69.8976 65.9692C64.3358 67.7336 58.8393 69.7058 53.3241 71.6165C52.8162 71.7925 52.3649 72.1331 51.4926 72.615C55.7634 73.7894 59.6871 74.429 63.6402 74.837C67.8127 75.2674 72.001 75.5432 76.183 75.8811C79.4266 76.1427 80.3523 77.3003 79.3781 80.4169C77.8981 85.1505 76.2111 89.8181 74.6224 94.5175C73.6242 97.4704 72.6454 100.431 71.658 103.388C71.8556 103.55 71.8597 103.554 72.0572 103.715C72.7954 103.282 73.5635 102.892 74.2658 102.406C78.741 99.3114 83.1976 96.1907 87.6687 93.0905C88.719 92.362 89.6792 91.0504 91.1275 91.7069C92.7565 92.4454 92.5734 94.1546 92.6124 95.6199C92.717 99.5927 92.7642 103.567 92.8426 107.541C92.8503 107.934 92.9137 108.327 93.0039 109.266C93.7982 108.349 94.3157 107.79 94.7906 107.197C97.5806 103.716 100.345 100.214 103.159 96.7533C103.673 96.1209 104.173 94.8266 105.222 95.6577C106.178 96.4145 105.299 97.3063 104.748 98.0006C101.359 102.272 97.9743 106.547 94.5355 110.778C93.8377 111.637 93.1022 112.902 91.7809 112.48C90.3526 112.024 90.7776 110.566 90.7622 109.459C90.7069 105.484 90.716 101.508 90.6689 97.5329C90.6553 96.4022 90.5325 95.273 90.4283 93.655C87.8907 95.4959 85.8534 97.0305 83.7581 98.4798C80.911 100.449 78.0318 102.373 75.1399 104.277C74.1095 104.955 73.0451 105.617 71.9145 106.088C71.3123 106.34 70.3276 106.443 69.8971 106.111C69.4667 105.779 69.333 104.807 69.391 104.144C69.4694 103.256 69.8237 102.384 70.1174 101.525C72.2815 95.1859 74.4711 88.8566 76.6248 82.514C77.068 81.2097 77.3929 79.8643 77.8651 78.2157C76.6398 78.0626 75.7009 77.9308 74.7579 77.8291C68.791 77.1872 62.8192 76.5914 56.8591 75.8906C54.9867 75.6704 53.1429 75.1908 51.2932 74.796C50.7336 74.6761 50.159 74.5161 49.6601 74.2457C48.4126 73.5701 48.24 72.33 49.3302 71.4319C50.0176 70.8657 50.8496 70.4339 51.6774 70.0902C59.0604 67.0219 66.5693 64.3353 74.4289 62.7661C75.3085 62.5905 76.2306 62.4451 77.1092 62.5308ZM163.7 28.2612C168.062 30.0455 172.022 32.5091 175.489 35.7252C185.577 45.0824 187.713 58.3751 181.048 70.3953C177.726 76.3856 172.998 81.0659 167.361 84.8814C166.017 85.7908 164.629 86.6349 163.034 87.6544C162.85 91.5498 162.686 95.2966 162.492 99.0417C162.429 100.256 162.409 101.494 162.135 102.667C161.97 103.369 161.46 104.34 160.902 104.505C160.358 104.666 159.372 104.12 158.9 103.596C157.611 102.166 156.478 100.594 155.309 99.0584C153.772 97.0406 152.262 95.0039 150.604 92.795C148.22 93.2766 145.768 93.8514 143.288 94.2575C131.681 96.1602 120.386 95.2234 109.558 90.3755C105.344 88.489 101.553 85.9696 98.2725 82.706C88.9487 73.4276 87.0816 60.7538 93.351 49.1693C97.1312 42.1858 102.734 36.9771 109.461 32.9091C117.598 27.9875 126.453 25.2809 135.917 24.3603C145.513 23.4268 154.78 24.6122 163.7 28.2612ZM136.984 26.8244C125.425 27.7881 114.96 31.451 105.762 38.5295C101.275 41.9819 97.6206 46.1728 95.0843 51.2709C90.0178 61.4521 91.7034 72.2969 99.6211 80.4832C102.624 83.5887 106.128 86.0098 110.037 87.8148C121.554 93.1335 133.536 93.8369 145.82 91.2353C147.028 90.9794 148.226 90.675 149.433 90.3627C150.797 90.0102 152.236 90.542 153.039 91.6956C155.068 94.6095 157.12 97.5021 159.863 100.459C160.094 96.1452 160.392 92.5442 160.44 88.9398C160.469 86.7891 161.263 85.5668 163.188 84.4652C170.299 80.3983 176.125 74.9722 179.703 67.4586C184.505 57.3752 182.753 46.8197 175.005 38.7971C171.858 35.5397 168.182 33.0292 164.059 31.1801C155.429 27.3099 146.414 26.0379 136.984 26.8244Z" fill="black"/>
<path fill-rule="evenodd" clip-rule="evenodd" d="M116.299 168.866C122.866 176.51 124.985 185.534 123.689 195.383C122.499 204.426 118.613 212.303 112.533 219.042C110.907 220.845 110.167 222.728 110.073 225.055C109.856 230.442 109.588 235.827 109.3 241.21C109.235 242.424 109.135 243.664 108.822 244.831C108.412 246.361 107.211 246.681 106.075 245.609C105.417 244.989 104.925 244.19 104.373 243.461C101.493 239.654 98.6169 235.843 95.6153 231.87C89.016 234.725 82.6402 236.245 75.9217 236.326C61.7621 236.498 49.2488 228.949 43.9365 216.833C40.4364 208.85 40.2267 200.595 42.6444 192.341C48.5018 172.341 67.6811 157.591 88.5248 157.217C99.3806 157.022 109.021 160.396 116.299 168.866ZM93.4293 159.928C82.4312 158.735 72.3866 161.79 63.4511 168.127C51.918 176.307 44.6372 187.178 43.6816 201.632C42.8683 213.941 49.3891 225.074 60.5327 230.394C71.2762 235.524 82.0805 234.553 92.8085 230.268C96.0351 228.978 96.1565 228.861 98.4237 231.623C101.06 234.836 103.6 238.128 106.646 241.972C106.792 240.08 106.922 238.781 106.987 237.478C107.223 232.705 107.432 227.931 107.662 223.158C107.747 221.379 108.285 219.854 109.608 218.511C114.256 213.793 117.581 208.213 119.638 201.939C126.327 181.52 114.874 162.256 93.4293 159.928ZM157.636 173.202C157.719 173.26 157.799 173.319 157.879 173.379C158.53 173.875 158.6 174.851 157.952 175.337C157.84 175.421 157.725 175.476 157.606 175.485C155.694 175.635 153.759 175.593 151.834 175.557C148.083 175.489 144.332 175.376 140.581 175.282C140.581 175.239 140.582 175.197 140.583 175.155C140.482 175.141 140.379 175.137 140.281 175.11C139.439 174.883 138.585 174.48 138.949 173.526C139.109 173.107 140.036 172.737 140.612 172.746C146.087 172.838 151.563 173.016 157.037 173.169C157.24 173.174 157.498 173.107 157.636 173.202ZM150.778 155.535C151.683 157.134 149.894 157.493 148.901 157.992C144.621 160.139 140.311 162.227 136.001 164.314C135.598 164.509 135.178 164.67 134.678 164.854C133.87 165.152 132.931 164.595 132.938 163.736C132.939 163.636 132.958 163.548 133 163.473C133.316 162.916 134.007 162.501 134.623 162.194C139 160.012 143.391 157.859 147.795 155.733C148.756 155.269 150.064 154.271 150.778 155.535ZM134.323 140.216C134.664 140.582 134.907 141.248 134.84 141.744C134.764 142.305 134.343 142.843 134.004 143.344C131.276 147.389 128.546 151.435 125.773 155.45C125.577 155.734 125.327 155.98 125.034 156.24C124.428 156.779 123.425 156.534 123.249 155.74C123.231 155.658 123.229 155.584 123.247 155.514C123.443 154.75 123.811 153.995 124.252 153.334C126.845 149.443 129.48 145.578 132.105 141.707C132.389 141.288 132.627 140.779 133.018 140.507C133.378 140.257 134.157 140.038 134.323 140.216Z" fill="#BEBEBE"/>
<path fill-rule="evenodd" clip-rule="evenodd" d="M334.353 105.031C335.162 109.302 335.949 113.579 336.734 117.855C337.104 119.865 336.54 121.402 334.58 122.329C333.608 122.79 332.642 123.34 331.817 124.024C328.962 126.392 328.144 130.251 329.706 133.539C331.178 136.637 334.032 137.381 336.362 134.906C338.408 132.733 339.968 130.099 341.739 127.666C342.388 126.774 342.571 124.934 344.195 125.739C345.896 126.582 345.029 128.119 344.305 129.168C342.391 131.94 340.601 134.886 338.241 137.237C334.483 140.981 329.252 139.711 327 134.864C324.761 130.046 326.163 124.431 330.451 121.244C331.413 120.528 332.485 119.96 333.783 119.153C333.321 113.954 331.181 109.103 331.636 104.066C331.663 103.757 331.902 103.499 332.206 103.442C333.652 103.172 334.146 103.936 334.353 105.031ZM316.268 80.3374C316.262 80.3944 316.254 80.4506 316.246 80.5073C315.667 84.0879 314.875 87.6355 314.297 91.2168C313.906 93.6327 312.479 94.597 310.161 95.1071C307.687 95.6517 305.104 96.3169 302.961 97.5768C299.178 99.8006 298.327 104.487 300.616 108.029C302.148 110.398 305.26 111.138 307.73 109.749C309.694 108.643 311.478 107.206 313.333 105.906C313.926 105.49 314.384 104.818 315.028 104.56C315.474 104.381 316.225 104.573 316.66 104.862C316.919 105.035 317.071 105.72 316.891 106.169C316.853 106.265 316.814 106.405 316.736 106.491C313.511 110.068 309.969 113.228 304.827 113.566C302.22 113.738 300.117 112.45 298.536 110.371C294.522 105.092 296.039 97.7293 302.112 94.5112C304.754 93.1114 307.803 92.4548 311.159 91.2889C311.804 87.8654 312.454 84.3009 313.155 80.7465C313.211 80.4634 313.256 80.1706 313.316 79.8819C313.693 78.0565 316.463 78.4841 316.268 80.3374ZM352.693 104.978C353.073 105.109 353.39 105.409 353.744 105.806C354.316 106.449 354.149 107.436 353.391 107.851L353.317 107.891C352.683 108.237 351.876 108.03 351.508 107.421C351.263 107.015 351.064 106.608 351.047 106.195C351.029 105.774 352.304 104.843 352.693 104.978ZM333.523 98.5921C333.869 98.9374 333.811 99.4709 333.4 99.7354C332.8 100.121 332.34 100.439 331.983 100.357C331.414 100.228 330.643 99.346 330.682 98.8505C330.716 98.3887 331.696 97.6732 332.263 97.6823C332.641 97.688 333.021 98.0918 333.523 98.5921ZM359.052 76.1739C361.123 78.4254 361.486 81.6132 360.004 84.5806C358.779 87.0338 356.828 88.8131 354.471 90.1949C353.321 90.8677 352.131 91.4742 350.612 92.2997C351.058 94.4386 351.425 96.3122 351.848 98.1744C352.082 99.204 352.137 100.347 350.868 100.397C350.233 100.422 349.302 99.5185 348.916 98.7504C348.726 98.3723 348.645 97.842 348.56 97.3699C348.184 95.2636 347.026 92.8604 347.692 91.1378C348.276 89.6229 350.988 88.9732 352.607 87.7502C354.136 86.5962 355.754 85.3849 356.823 83.8572C359.113 80.588 357.634 77.4414 353.609 76.5887C351.011 76.0376 348.475 76.2979 346.079 77.4673C345.534 77.7335 345.042 78.1492 344.471 78.3101C343.408 78.6085 342.469 77.6293 342.839 76.6245C342.997 76.1971 343.326 75.7924 343.673 75.4767C347.075 72.3775 355.939 72.7905 359.052 76.1739ZM389.501 96.4682C389.955 96.9867 390.343 97.4025 390.266 97.5396C389.934 98.1278 389.322 98.7124 388.709 98.8961C388.421 98.982 387.461 98.0151 387.539 97.7537C387.672 97.3063 388.026 96.9274 388.449 96.4631C388.736 96.1485 389.222 96.1497 389.501 96.4682ZM415.129 70.0382C421.077 73.1092 421.294 79.2957 415.78 83.086C411.847 85.7907 407.315 86.2474 402.809 85.789C399.532 85.4549 397.478 86.3958 395.878 89.1028C394.837 90.8641 393.576 92.5209 392.233 94.0708C392.147 94.1701 392.037 94.2481 391.91 94.3116C390.94 94.7975 389.737 94.0173 389.784 92.9411C389.791 92.7653 389.829 92.6089 389.915 92.4855L390.542 91.5745C392.324 88.9941 394.15 86.4272 396.248 84.1105C397.059 83.2154 398.838 82.959 400.214 82.8388C402.39 82.648 404.6 82.8787 406.792 82.8208C409.529 82.7478 412.111 82.0408 414.327 80.4068C417.605 77.9903 417.543 74.8876 414.022 72.9025C412.27 71.9156 410.188 71.5043 408.255 70.832C404.906 70.7772 401.841 71.0303 399.132 73.1495C399.038 73.2232 398.924 73.2726 398.795 73.3039C397.732 73.5613 396.786 72.5139 397.045 71.46C397.087 71.2886 397.152 71.1363 397.255 71.0141C397.918 70.2192 398.915 69.5624 399.903 69.1894C405.08 67.2385 410.264 67.5268 415.129 70.0382ZM370.162 83.5196C370.776 84.0455 370.792 85.017 370.195 85.557C369.959 85.7706 369.748 85.9091 369.545 85.897C369.084 85.8679 368.318 85.0473 368.321 84.5813C368.324 84.0836 369.03 83.2585 369.505 83.1996C369.701 83.1748 369.916 83.3093 370.162 83.5196ZM316.06 71.4952C316.471 71.6023 316.831 71.896 317.18 72.2313C317.66 72.6907 317.685 73.4282 317.239 73.9105L316.924 74.2515C316.471 74.7416 315.619 74.6962 315.198 74.1372C314.814 73.6275 314.525 73.2092 314.501 72.7795C314.476 72.3419 315.65 71.3888 316.06 71.4952ZM380.525 55.2343C381.554 58.1749 381.2 61.1093 379.303 63.457C377.526 65.6563 375.42 67.7217 373.087 69.2774C371.304 70.4653 370.738 71.7679 370.763 73.689L370.776 74.6289C370.792 75.8827 370.793 77.1385 370.689 78.3831C370.672 78.5811 370.644 78.7774 370.608 78.975C370.297 80.6664 367.813 80.4266 367.82 78.7058L367.82 78.6738C367.833 76.2649 367.981 73.8563 367.947 71.4496C367.919 69.508 368.912 68.4612 370.428 67.4426C372.486 66.0588 374.439 64.4598 376.215 62.7209C377.612 61.3536 378.278 59.4786 378.035 57.4359C377.69 54.5295 375.473 53.3268 372.874 54.6406C372.14 55.0113 371.559 55.7269 370.806 56.0139C370.263 56.2206 369.261 56.2142 368.993 55.8746C368.678 55.4777 368.67 54.4018 368.992 53.9913C370.646 51.876 372.912 50.8611 375.575 51.1114C378.074 51.346 379.704 52.8897 380.525 55.2343ZM332.219 66.8462C332.674 66.971 333.055 67.3547 333.516 67.853C333.986 68.3603 333.854 69.154 333.241 69.4832C332.659 69.7956 332.22 70.0176 331.974 69.891C331.56 69.6769 331.248 69.2773 330.955 68.845C330.598 68.3191 330.718 67.6196 331.236 67.244C331.602 66.9785 331.951 66.7723 332.219 66.8462ZM350.159 37.6752C350.057 41.8262 348.225 45.208 345.062 47.7173C342.613 49.6595 339.944 51.3456 337.255 52.9416C335.759 53.8288 334.923 54.8693 334.784 56.6222C334.61 58.7974 334.327 60.9684 333.985 63.1239C333.965 63.2494 333.942 63.3738 333.914 63.4972C333.519 65.283 330.883 64.9122 331.065 63.0919L331.069 63.0554C331.371 60.1617 331.788 57.2794 332.194 54.3973C332.459 52.5172 333.799 51.5384 335.292 50.6274L336.35 49.9818C338.468 48.6891 340.581 47.3802 342.577 45.9123C345.085 44.0663 346.79 41.6013 347.106 38.3512C347.526 34.0422 344.976 30.8234 340.675 30.9984C334.465 31.2509 329.266 33.7391 326.074 39.4622C325.563 40.3796 325.134 41.4541 324.055 40.7518C323.769 40.5659 323.588 40.1595 323.471 39.6918C323.248 38.7968 323.385 37.8366 323.826 37.0273C323.898 36.8939 323.973 36.7735 324.045 36.6797C328.572 30.8825 334.39 27.6178 341.806 28.1005C346.948 28.4342 350.287 32.4591 350.159 37.6752Z" fill="#00FF87"/>
<path fill-rule="evenodd" clip-rule="evenodd" d="M270.612 156.23C270.576 155.789 270.953 156.937 271.014 157.671C271.607 164.695 272.485 177.064 273.175 184.079C273.873 191.166 275.494 205.621 276.371 212.689C277.45 221.378 277.708 217.669 278.899 226.344C280.111 235.166 281.413 243.974 282.683 252.787C283.816 260.645 284.928 268.507 286.105 276.358C287.747 287.305 289.445 298.242 291.103 309.186C291.397 311.124 291.804 314.305 292.029 316.252C292.282 318.44 295.277 318.704 293.087 318.914C292.723 318.949 292.36 318.985 292.029 319.018L293.599 340.15C294.838 340.15 295.78 340.17 296.72 340.146C302.084 340.689 305.707 340.887 310.391 341.906C313.631 342.61 317.196 343.485 319.902 345.422C323.413 347.935 325.259 351.311 325.32 355.639C325.374 359.458 324.683 363.175 323.746 366.85C323.33 368.48 322.959 368.712 321.205 368.679C311.657 368.502 302.087 368.577 292.601 367.32C284.842 366.291 278.348 364.005 270.612 362.802C270.337 362.759 270.087 362.565 269.782 362.42C269.782 360.165 269.655 357.944 269.803 355.742C270.576 344.192 270.963 331.85 271.789 320.304C271.858 319.339 267.297 317.29 265.995 317.066C265.476 316.662 265.373 315.603 265.273 314.816C264.605 309.59 264.032 304.352 263.349 299.129C261.943 288.386 260.58 277.638 259.03 266.916C256.855 251.862 255.151 242.344 253.131 227.271C251.747 216.952 252.876 203.79 250.773 193.621C250.367 191.659 250.02 189.686 249.622 187.723C249.508 187.162 249.309 186.618 249.148 186.066C248.992 186.07 246.376 184.074 246.221 184.079C245.371 187.876 243.795 193.681 242.876 197.462C240.283 208.13 237.554 218.765 235.032 229.449C230.328 249.379 228.161 265.456 222.569 285.159C216.977 304.861 215.752 309.386 213.069 318.914C212.186 322.046 211.473 325.221 210.821 328.408C210.355 330.693 211.416 329.823 209.309 329.351C206.922 328.816 203.462 328.194 201.021 327.615C199.294 333.59 197.612 339.412 195.876 345.422C196.41 345.604 196.852 346.223 197.474 346.407C202.368 347.848 207.015 349.824 211.219 352.739C212.197 353.416 213.149 354.144 214.04 354.931C218.498 358.863 219.724 363.636 217.713 369.23C217.379 370.159 216.917 371.041 216.53 371.952C216.348 372.378 216.114 372.781 215.847 373.158C212.883 377.341 213.576 375.697 210.821 375.621C208.37 375.554 204.51 375.322 202.102 374.854C198.099 374.077 196.717 373.13 192.872 371.761C189.436 370.538 188.072 371.166 186.323 369.736C181.919 366.134 178.147 361.926 174.471 357.625C173.942 357.006 173.532 356.288 173.065 355.617C171.837 353.854 171.609 352.106 172.385 349.973C175.25 342.093 177.926 334.144 180.665 326.218C180.907 325.519 181.095 324.801 181.354 323.943C179.255 323.257 179.936 321.747 180.254 320.304C186.041 294.064 190.845 269.666 198.724 243.972C206.604 218.277 209.461 201.809 214.79 182.964C217.15 174.617 218.407 166.105 220.455 157.671C220.629 156.953 220.618 157.59 220.934 156.929L270.612 156.23Z" fill="white"/>
<path fill-rule="evenodd" clip-rule="evenodd" d="M271.277 156.645C271.496 157.345 271.615 158.088 271.677 158.822C272.267 165.851 272.749 172.891 273.436 179.91C274.13 187.001 274.965 194.081 275.838 201.153C276.911 209.848 278.045 218.535 279.231 227.215C280.436 236.042 282.503 244.856 283.766 253.674C284.894 261.537 286 269.403 287.171 277.259C288.805 288.212 290.494 299.157 292.144 310.106C292.436 312.046 293.226 315.229 293.451 317.177C293.617 318.626 293.771 319.212 293.034 319.284L293.758 340.162C294.992 340.162 295.928 340.182 296.863 340.159C302.201 340.702 305.806 340.9 310.466 341.92C313.69 342.625 317.237 343.499 319.929 345.438C323.422 347.953 325.259 351.331 325.32 355.661C325.373 359.482 324.687 363.202 323.754 366.879C323.34 368.51 322.971 368.742 321.225 368.709C311.725 368.531 302.204 368.607 292.766 367.349C285.045 366.319 277.362 365.001 269.665 363.797C269.392 363.754 269.142 363.56 268.839 363.416C268.839 361.159 268.713 358.937 268.86 356.733C269.629 345.176 269.694 333.624 270.516 322.071C270.55 321.591 270.468 319.759 270.468 319.768C270.468 319.777 266.814 319.881 266.162 319.768C265.646 319.364 263.126 306.797 262.446 301.57C261.047 290.822 259.691 280.067 258.15 269.338C255.985 254.276 253.872 239.258 251.862 224.176C250.486 213.852 250.155 203.721 248.061 193.546C247.658 191.583 247.313 189.608 246.917 187.644C246.804 187.083 246.605 186.539 246.445 185.987C246.29 185.991 246.311 185.99 246.156 185.994C245.31 189.793 244.522 193.606 243.608 197.389C241.028 208.063 237.541 218.705 235.032 229.395C230.352 249.338 227.745 269.217 222.18 288.932C219.491 298.46 217.245 307.894 214.574 317.427C213.696 320.561 212.987 323.738 212.339 326.928C211.874 329.214 211.217 329.829 209.122 329.357C206.746 328.821 204.382 328.233 201.952 327.654C200.235 333.633 198.561 339.458 196.834 345.472C197.365 345.654 197.97 345.884 198.59 346.068C203.459 347.51 208.082 349.487 212.265 352.404C213.238 353.082 214.185 353.81 215.072 354.597C219.507 358.531 220.727 363.307 218.726 368.905C218.394 369.834 217.934 370.717 217.549 371.629C217.369 372.055 217.136 372.458 216.869 372.836C213.92 377.021 214.041 376.385 211.3 376.309C208.861 376.242 205.02 376.01 202.625 375.542C198.642 374.765 196.023 374.172 192.197 372.802C188.778 371.578 187.991 371.197 186.251 369.766C181.868 366.163 178.116 361.952 174.458 357.648C173.932 357.029 173.524 356.31 173.059 355.639C171.837 353.875 171.611 352.126 172.382 349.992C175.233 342.106 177.896 334.153 180.621 326.222C180.862 325.522 181.049 324.804 181.306 323.946C179.219 323.26 179.938 321.766 180.212 320.305C185.229 293.642 190.328 269.138 197.26 242.89C202.625 222.574 206.6 203.417 213.47 181.755C216.069 173.559 216.77 169.141 218.807 160.701C218.981 159.983 219.175 159.256 219.489 158.594C219.604 158.35 220.13 158.123 220.403 158.184C220.658 158.241 220.934 158.664 221.005 158.971C221.083 159.309 220.975 159.707 220.886 160.064C218.07 171.444 215.578 182.918 212.355 194.182C205.885 216.795 200.487 238.872 194.682 261.858C189.504 282.358 184.646 306.269 182.873 317.056C182.619 318.6 182.196 320.087 181.863 321.571C191.237 323.53 200.504 325.466 210.003 327.451C210.144 327.092 210.423 326.587 210.542 326.046C213.358 313.35 216.909 301.081 220.39 288.573C225.725 269.41 228.274 250.128 232.808 230.76C235.278 220.212 238.78 209.725 241.301 199.188C242.596 193.776 243.691 188.316 244.875 182.877C245.347 180.71 245.339 180.676 247.542 180.321C249.3 180.037 251.07 179.822 252.839 179.623C254.647 179.42 255.1 179.882 254.85 181.755C254.585 183.74 254.202 185.71 253.92 187.694C253.26 192.324 252.473 195.061 251.862 199.698C251.778 200.339 251.789 206.148 251.862 206.804C253.381 220.382 253.92 225.753 254.774 231.692C255.628 237.631 257.313 250.169 258.643 259.426C260.152 269.935 261.539 280.461 262.916 290.987C264.033 299.527 265.215 306.11 266.162 311.602C266.835 315.5 267.723 317.172 267.862 317.823C275.569 317.862 283.766 318.147 291.669 317.823C291.409 315.674 290.828 313.63 290.524 311.602C288.113 295.525 285.631 279.458 283.271 263.373C281.277 249.785 278.565 236.187 276.749 222.574C275.003 209.476 273.36 196.362 271.845 183.235C271.131 177.044 270.825 170.805 270.329 164.589C270.158 162.442 269.966 160.298 269.794 158.151C269.759 157.711 269.68 157.243 269.789 156.832C269.866 156.545 270.206 156.169 270.468 156.134C270.722 156.101 271.2 156.398 271.277 156.645ZM174.204 350.955C173.587 352.855 173.544 353.06 174.657 354.608C178.621 360.126 183.222 365.054 188.61 369.206C189.524 369.911 190.695 370.343 191.79 370.733C196.808 372.521 196.513 372.668 202.36 373.587C204.585 374.063 210.146 374.678 212.431 374.701C212.768 374.626 214.073 373.924 215.042 372.401C214.552 372.294 214.067 372.388 213.802 372.359C210.704 372.021 207.609 371.67 204.508 371.362C199.623 370.878 194.675 368.991 191.108 366.487C185.837 362.367 180.689 358.116 176.229 353.097C175.599 352.387 174.925 351.716 174.204 350.955ZM214.571 356.852C209.273 358.072 206.622 361.822 205.761 369.603C207.57 369.801 209.253 369.988 210.936 370.167C212.61 370.345 214.286 370.514 215.835 370.674C218.902 365.382 218.205 359.696 214.571 356.852ZM180.347 333.145C178.455 338.451 176.642 343.535 174.791 348.727C175.856 349.911 176.89 351.062 177.925 352.214C182.31 357.094 187.326 361.267 192.536 365.218C195.558 367.079 199.771 369.089 203.73 369.299C204.285 366.225 204.79 364.077 205.907 361.445C207.086 358.666 209.743 356.363 213.069 355.21C211.548 354.186 209.39 352.799 207.785 351.997C207.53 352.093 207.218 352.399 205.876 353.57C204.805 354.505 203.954 354.948 202.757 355.88C201.783 356.639 201.294 357.343 200.244 356.89C199.588 356.515 199.999 355.649 201.457 354.456C202.866 353.302 204.09 352.312 205.8 350.964C204.502 350.21 203.724 349.855 202.724 349.43C201.788 349.032 200.76 348.835 200.76 348.835C200.152 349.25 199.915 349.461 199.465 349.872C198.315 350.922 197.116 351.918 195.94 352.94L195.883 352.989C195.055 353.709 193.875 352.618 194.546 351.749C195.611 350.37 197.05 349.384 198.535 347.937C196.897 347.246 195.672 347.043 195.579 347.107C195.08 347.452 194.32 347.868 193.465 348.769C192.614 349.593 191.745 350.41 190.813 351.138C190.752 351.186 190.679 351.219 190.597 351.241C190.03 351.396 189.449 350.919 189.478 350.333C189.482 350.246 189.497 350.164 189.53 350.088C189.723 349.636 190.124 349.241 190.51 348.906C191.518 348.033 192.587 347.229 193.591 346.351C194.075 345.927 194.66 345.47 194.867 344.906C195.676 342.697 196.353 340.439 197.148 337.984C191.471 336.349 185.962 334.762 180.347 333.145ZM270.737 356.611C270.651 358.447 270.573 360.116 270.49 361.879C287.569 365.491 304.533 367.122 321.863 366.779C322.271 364.957 322.653 363.251 323.101 361.257C305.379 361.62 288.152 359.478 270.737 356.611ZM315.707 345.135C311.732 347.468 307.709 353.726 306.826 359.059C312.274 359.615 317.698 359.535 323.078 359.406C324.664 351.59 321.149 347.655 315.707 345.135ZM272.266 335.339C271.795 341.814 271.335 348.13 270.865 354.595C282.204 356.933 293.385 358.013 304.687 358.961C306.204 353.236 308.936 348.394 313.592 344.026C311.137 343.525 309.589 343.258 307.334 342.889C306.795 342.754 305.762 342.722 305.762 342.722C305.408 342.893 305.316 343.258 305.051 343.671C304.249 344.918 303.461 346.177 302.601 347.384C302.127 348.05 301.983 349.232 300.765 348.965C300.07 348.813 300.16 347.864 301.017 346.459C301.814 345.153 302.65 343.871 303.492 342.542C301.212 342.164 299.989 342.005 299.698 342.225C299.31 342.519 298.967 343.214 298.485 343.899C297.676 345.052 296.979 346.285 296.143 347.417C295.64 348.099 295.361 349.622 294.132 348.801C293.114 348.121 294.174 347.207 294.586 346.503C295.432 345.057 296.366 343.662 297.293 342.199C295.579 342.134 293.777 341.731 293.489 342.044C293.125 342.437 292.48 343.418 292.035 344.165C291.316 345.374 290.462 346.503 289.657 347.659C289.405 348.021 289.173 348.436 288.828 348.682C288.589 348.852 288.076 348.913 287.861 348.766C287.633 348.609 287.476 348.124 287.532 347.828C287.61 347.413 287.876 347.015 288.125 346.653C289.132 345.185 290.174 343.742 291.177 342.272C291.502 341.795 291.976 341.267 291.986 340.754C292.026 338.854 291.9 336.95 291.833 334.946C285.209 334.347 278.817 334.523 272.266 335.339ZM184.505 340.211C186.977 340.211 188.889 342.196 188.912 344.789C188.938 347.617 186.591 350.135 183.85 350.222C181.377 350.3 179.219 348.091 179.267 345.529C179.318 342.777 181.844 340.212 184.505 340.211ZM279.92 338.286C282.558 338.329 284.546 340.39 284.599 343.135C284.658 346.238 281.973 349.069 278.972 349.069C276.276 349.068 274.164 346.864 274.182 344.071C274.203 340.909 276.853 338.237 279.92 338.286ZM184.523 342.151C182.767 342.128 181.16 343.704 181.099 345.507C181.048 346.995 182.164 348.237 183.619 348.313C185.419 348.407 187.134 346.695 187.122 344.817C187.112 343.265 186.045 342.17 184.523 342.151ZM279.716 340.097C277.789 340.159 276.034 342.027 276 344.051C275.97 345.805 277.285 347.21 278.963 347.215C280.971 347.22 282.803 345.261 282.769 343.144C282.74 341.356 281.424 340.042 279.716 340.097ZM199.867 327.73C193.632 328.087 187.745 328.424 181.743 328.767C181.483 329.634 181.241 330.444 180.959 331.386C186.588 333.01 191.977 334.563 197.703 336.214C198.452 333.278 199.133 330.606 199.867 327.73ZM290.783 321.137C290.139 321.346 289.709 321.436 289.323 321.619C284.235 324.033 279.174 326.507 274.059 328.859C273.141 329.281 272.125 329.903 272.125 329.903C271.948 331.296 271.94 331.406 271.789 333.102C278.252 332.971 284.578 332.844 291.065 332.713C291.135 328.904 291.143 325.094 290.783 321.137Z" fill="black"/>
<path fill-rule="evenodd" clip-rule="evenodd" d="M240.927 40.9909L242.932 40.8728C249.147 40.5226 252.521 40.5495 253.054 40.9537C259.61 49.8122 261.955 58.5513 260.087 67.1708C259.686 69.0196 253.551 70.1632 241.681 70.6017L241.319 70.6148L242.625 82.9023C242.77 83.4704 242.848 84.0753 242.848 84.7028C242.848 87.9991 240.691 90.6712 238.031 90.6712C235.37 90.6712 233.213 87.9991 233.213 84.7028C233.213 84.3713 233.235 84.0462 233.277 83.7294L232.648 83.7295L232.619 82.651C232.296 71.1881 231.729 64.9409 230.916 63.9095C221.595 63.9095 221.595 59.2343 222.106 56.6884C222.617 54.1426 227.978 53.1039 228.885 53.1039C227.651 40.978 230.786 41.5736 240.927 40.9909Z" fill="white"/>
<path fill-rule="evenodd" clip-rule="evenodd" d="M246.925 22.5403C248.616 23.5315 249.77 24.997 250.444 26.8376C250.585 27.2231 250.726 27.6085 250.948 28.2138C251.366 27.8423 251.582 27.6659 251.78 27.4722C253.83 25.4734 256.215 24.853 258.905 25.8992C261.647 26.9655 263.068 29.1445 263.456 31.9632C263.972 35.7156 262.116 39.0799 258.728 40.778C257.694 41.2964 256.624 41.719 255.524 42.0065L255.452 41.9013C260.458 49.1236 263.042 56.9515 261.309 65.8253C261.229 66.2357 261.08 66.6331 261 67.0436C260.728 68.4368 259.921 69.1907 258.502 69.4899C253.843 70.4707 249.169 71.2932 244.391 71.3505C243.699 71.3586 243.007 71.3517 242.046 71.3517C242.417 72.9466 242.754 74.3317 243.057 75.7248C243.168 76.2331 244.345 83.6965 243.894 83.7905C243.183 83.9391 242.39 83.9957 242.356 83.0785C242.318 82.0612 241.508 75.9786 241.276 74.9736C241.168 74.5042 239.841 73.8403 238.961 72.9559C238.327 72.319 237.804 71.5461 237.358 70.7625C237.156 70.4079 236.8 69.5223 236.957 69.1507C237.043 68.9462 238.028 69.1441 238.388 69.21C242.075 69.8842 245.773 69.8272 249.461 69.317C252.227 68.9343 254.972 68.3971 257.731 67.9458C258.756 67.7779 259.263 67.2119 259.49 66.1876C260.397 62.0871 260.26 58.3194 259.258 53.9657C258.302 49.8157 255.878 45.7186 253.323 42.3861C252.975 42.4152 252.625 42.4286 252.273 42.4257C247.867 42.3899 243.463 42.155 239.057 42.0641C237.243 42.0268 235.423 42.1061 233.612 42.2224C233.003 42.2613 232.396 42.5409 231.815 42.7769C229.311 43.7969 229.078 44.229 229.633 46.9098C230.044 48.8944 230.529 50.8636 230.916 52.8524C230.998 53.2737 230.998 53.5046 230.602 53.904C229.939 54.0614 229.988 54.1672 229.762 54.0746C229.722 54.0928 229.679 54.1057 229.634 54.1123C229.292 54.1615 228.967 54.2054 228.642 54.2024C227.098 54.1877 225.773 54.7649 224.566 55.656C223.351 56.5535 222.714 57.7134 222.968 59.2813C223.237 60.9359 224.023 62.2155 225.685 62.6741C226.748 62.9671 227.881 63.0311 228.989 63.1289C229.742 63.1951 230.504 63.1412 231.461 63.1412C231.613 64.0022 231.823 64.797 231.883 65.6033C232.208 69.9271 233.055 78.2249 233.325 82.5526C233.369 83.2511 233.842 84.3612 232.803 84.5156C231.597 84.6955 231.738 83.4891 231.678 82.7066C231.421 79.3736 230.808 73.2454 230.447 69.0093L230.492 69.0584C229.544 68.0294 228.11 66.4536 227.268 65.3337C227.187 65.2261 226.937 64.9613 226.737 64.6959L226.794 64.7038C223.257 64.2644 221.222 61.9333 221.267 58.4877C221.281 57.3449 221.6 56.3423 222.303 55.4876L222.321 55.5194C220.354 52.0688 218.822 48.4716 219.503 44.3745C220.039 41.1489 221.849 38.6448 224.645 37.0572C226.756 35.8593 229.074 35.0094 231.343 34.1145C233.291 33.3463 235.304 32.7426 237.283 32.0498C238.679 31.5612 239.435 30.5812 239.564 29.0895C239.654 28.0456 239.82 27.0082 239.958 25.9685C240.447 22.2635 243.7 20.6493 246.925 22.5403Z" fill="black"/>
<path fill-rule="evenodd" clip-rule="evenodd" d="M299.956 110.147C299.971 110.181 299.981 110.216 299.989 110.253L299.956 110.147ZM293.782 111.813C291.539 108.953 289.988 104.23 292.008 104.928C293.439 105.422 298.423 111.126 298.398 111.084C296.661 108.145 295.356 105.282 294.361 101.951C294.067 100.966 294.135 100.064 294.711 99.5548C295.162 99.1562 295.953 99.078 295.953 99.078C295.486 96.9664 295.539 95.4566 298.095 96.4168C297.691 95.1935 297.628 94.0946 298.842 93.5735C300.03 93.0638 301.025 93.517 301.897 94.3354C304.415 96.6986 306.335 99.5641 308.149 102.477C308.892 103.669 309.736 104.76 309.877 106.199C309.999 107.447 309.725 108.697 309.432 109.904C307.245 118.919 305.103 127.948 302.694 136.905C301.665 140.73 300.177 144.455 298.625 148.11C295.956 154.397 288.715 157.078 282.483 154.299C278.98 152.736 276.12 150.276 273.257 147.814C272.749 147.377 272.228 146.957 271.403 146.273C271.403 147.467 271.368 148.28 271.41 149.09C271.517 151.187 270.255 152.424 270.255 154.892C270.255 157.36 266.037 157.289 263.589 158.111C252.427 161.86 238.794 161.889 226.969 161.32C219.834 160.977 213.106 158.574 207.266 154.299C206.823 153.974 206.335 153.673 205.735 153.323C205.429 153.857 205.202 154.916 204.975 155.393C201.188 163.343 197.889 171.48 195.364 179.927C194.926 181.395 195.16 182.376 196.12 183.506C197.834 185.526 199.438 187.646 200.968 189.809C201.599 190.702 202.069 191.775 202.344 192.835C202.796 194.579 201.452 195.714 199.756 195.083C199.116 194.846 198.539 194.408 197.979 194C197.48 193.637 197.042 193.188 196.313 192.543C196.694 194.273 197.048 195.667 197.293 197.08C197.447 197.966 197.555 198.891 197.476 199.78C197.295 201.802 195.435 201.79 194.285 201.265C193.846 201.065 193.528 200.665 193.143 200.357C191.443 202.029 190.653 202.655 188.063 200.921C187.154 201.743 186.033 202.068 185.033 201.055C184.261 200.272 184.441 200.614 183.123 198.096C183.134 198.094 182.89 198.406 182.842 198.44C182.134 198.946 181.58 199.88 180.503 199.435C179.412 198.984 179.285 197.911 179.266 196.961C179.236 195.433 179.275 193.879 179.519 192.375C180.199 188.176 180.886 183.972 181.785 179.817C182.787 175.186 184.055 170.614 185.158 166.004C187.516 156.147 191.141 146.254 195.364 136.905C194.994 136.413 194.598 136.013 194.285 135.495C193.218 133.728 192.094 132.108 193.28 130.173C194.338 128.447 195.295 126.66 196.337 124.924C200.939 117.262 205.553 109.606 210.169 101.951C212.449 98.1707 215.084 94.6607 218.117 91.4407C221.771 87.5613 224.527 85.6041 229.468 83.9203C231.345 83.2809 230.778 81.6272 232.007 83.3356C232.722 84.3295 243.379 84.3497 243.546 83.9203C243.933 82.9241 243.585 82.8519 244.582 82.724C246.216 82.5143 247.688 83.4141 249.041 84.1911C253.738 86.8892 258.044 90.1034 261.737 94.072C268.041 100.846 273.563 108.22 278.324 116.149C279.362 117.878 280.098 119.785 281.055 121.567C281.885 123.111 282.114 124.557 280.707 125.92C282.52 128.16 284.961 131.2 286.886 133.579C287.169 132.945 287.312 131.794 287.485 131.321C288.588 128.307 289.073 125.11 290.177 122.097C290.229 121.955 290.276 121.805 290.328 121.659L293.782 111.813Z" fill="white"/>
<path fill-rule="evenodd" clip-rule="evenodd" d="M317.368 51.5307C324.155 53.2166 328.104 57.8965 329.9 64.4031C332.583 74.1279 328.485 85.3083 320.279 91.2199C316.126 94.2109 311.525 95.5211 306.409 94.8791C305.999 94.8275 305.589 94.7782 304.992 94.7047C304.751 95.2784 304.504 95.8433 304.267 96.4101C305.795 98.2367 307.106 100.238 308.366 102.263C309.11 103.458 309.956 104.551 310.097 105.993C310.219 107.244 309.944 108.497 309.651 109.705C307.46 118.74 305.314 127.789 302.901 136.765C301.871 140.598 300.38 144.331 298.826 147.994C296.152 154.294 288.899 156.981 282.657 154.196C279.147 152.63 276.283 150.164 273.415 147.697C272.907 147.259 272.384 146.839 271.558 146.153C271.558 147.35 271.524 148.164 271.565 148.976C271.671 151.077 272.891 156.09 271.052 156.852C268.662 157.841 265.084 158.785 261.875 159.582C250.379 162.436 238.894 161.803 227.05 161.233C219.903 160.889 213.248 159.033 207.398 154.748C206.955 154.424 206.448 154.185 205.848 153.835C205.541 154.37 205.245 154.815 205.018 155.293C201.225 163.26 197.921 171.414 195.392 179.88C194.952 181.351 195.187 182.334 196.148 183.466C197.865 185.49 199.472 187.615 201.004 189.783C201.637 190.678 202.108 191.753 202.383 192.816C202.836 194.563 201.489 195.7 199.79 195.069C199.15 194.831 198.572 194.392 198.011 193.983C197.51 193.619 197.072 193.169 196.342 192.523C196.723 194.257 197.078 195.654 197.324 197.069C197.478 197.957 197.586 198.885 197.506 199.775C197.325 201.802 195.462 201.79 194.31 201.264C193.871 201.063 193.552 200.663 193.167 200.354C191.464 202.029 190.672 202.656 188.078 200.918C187.167 201.743 186.044 202.068 185.043 201.054C184.269 200.269 184.449 200.611 183.13 198.088C183.141 198.086 182.896 198.398 182.848 198.433C182.139 198.939 181.583 199.875 180.505 199.43C179.413 198.978 179.285 197.902 179.266 196.95C179.236 195.419 179.275 193.862 179.519 192.354C180.201 188.146 180.888 183.933 181.789 179.769C182.793 175.129 184.063 170.546 185.168 165.927C187.53 156.048 190.508 146.373 194.739 137.004C194.369 136.512 193.957 136.051 193.644 135.532C192.576 133.762 192.116 131.958 193.304 130.019C194.363 128.289 195.322 126.498 196.365 124.759C200.976 117.08 205.598 109.407 210.221 101.736C212.505 97.9472 215.144 94.4301 218.182 91.2027C221.842 87.3149 225.487 84.2582 230.437 82.5708C232.317 81.93 232.432 82.1463 233.663 83.8583C234.379 84.8544 235.254 85.8317 236.268 86.4971C238.194 87.7611 240.63 87.8408 242.042 85.496C242.28 85.1007 242.826 84.0915 242.992 83.6616C243.38 82.6636 243.653 82.5908 244.651 82.4626C246.288 82.2525 247.803 83.1588 249.158 83.9375C253.864 86.6414 258.176 89.8625 261.875 93.8396C268.189 100.629 273.722 108.018 278.49 115.964C279.53 117.697 280.267 119.608 281.226 121.393C282.058 122.941 282.286 124.39 280.878 125.757C282.694 128.001 284.447 130.169 286.376 132.553C286.659 131.918 286.894 131.466 287.067 130.992C287.918 128.667 288.757 126.339 289.602 124.012C289.566 123.977 289.529 123.94 289.492 123.902C288.58 122.947 288.928 122.018 289.326 121.006C290.619 117.721 291.908 114.435 293.196 111.148C291.755 109.625 290.569 107.918 290.184 105.797C289.931 104.401 291.068 103.518 292.431 104.028C293.605 104.468 294.406 105.323 295.102 106.281L295.468 105.343C294.901 104.18 294.403 102.98 294.025 101.716C293.73 100.729 293.812 99.5361 294.389 99.0265C294.841 98.627 295.624 98.7663 295.624 98.7663C295.155 96.6501 295.389 95.1279 297.949 96.0897C297.544 94.8638 297.828 93.8624 299.043 93.3404C299.458 93.1623 299.849 93.1014 300.22 93.1324L300.341 92.8176C299.192 91.8114 298.177 91.0524 297.315 90.1483C293.389 86.0292 291.649 81.0256 291.802 75.4192C292.043 66.6047 295.66 59.4592 302.975 54.4001C307.309 51.4022 312.175 50.2406 317.368 51.5307ZM197.001 136.141C196.68 136.84 196.479 137.28 196.275 137.719C190.346 150.496 187.266 164.141 184.09 177.75C183.065 182.14 182.953 186.635 183.325 191.105C183.503 193.24 184.103 195.354 184.658 197.438C184.804 197.986 185.142 198.483 185.558 199.111C185.83 199.523 186.474 199.291 186.419 198.801C186.142 196.445 185.823 194.093 185.552 191.736C185.416 190.556 185.326 189.369 185.273 188.183C185.257 187.826 185.305 187.475 185.603 187.243C185.959 186.966 186.488 187.165 186.625 187.595C186.77 188.052 186.919 188.522 186.982 189.002C187.322 191.565 187.52 194.149 187.933 196.699C188.128 197.903 188.603 198.968 189.507 199.789C190.204 200.421 191.327 199.912 191.37 198.972C191.412 198.053 191.267 197.17 191.134 196.3C190.722 193.612 190.212 190.939 189.762 188.257C189.67 187.709 189.55 187.121 189.66 186.598C189.696 186.427 189.808 186.272 189.945 186.123C190.234 185.811 190.741 185.811 191.026 186.128C191.115 186.228 191.183 186.332 191.205 186.446C191.425 187.611 191.483 188.806 191.675 189.978L191.759 190.492C192.186 193.148 192.588 195.82 193.986 198.199C194.24 198.631 194.454 199.14 194.9 199.485C195.295 199.789 195.868 199.478 195.843 198.98C195.814 198.389 195.786 197.837 195.662 197.308C195.009 194.52 194.263 191.754 193.598 188.967C193.467 188.419 193.419 187.851 193.369 187.306C193.33 186.865 193.703 186.483 194.142 186.542C194.673 186.614 194.94 187.035 195.213 187.468C195.956 188.651 196.666 189.861 197.491 190.986C198.289 192.073 199.199 193.089 200.541 193.533C200.571 193.498 200.6 193.462 200.627 193.426C200.858 193.121 200.888 192.711 200.699 192.38C200.168 191.455 199.621 190.605 198.977 189.733C197.401 187.597 195.714 185.539 194.021 183.491C193.281 182.597 193.047 181.707 193.419 180.589C194.347 177.805 195.162 174.983 196.122 172.211C198.987 163.938 202.759 156.053 206.485 148.147C207.342 146.328 208.118 144.47 209.017 142.436C204.946 140.303 201.018 138.245 197.001 136.141ZM181.481 188.316C181.403 188.306 181.185 191.638 181.175 191.716C180.732 194.925 180.501 197.518 180.902 197.518C182.998 197.159 181.814 194.254 181.851 192.596C181.764 192.586 181.568 188.326 181.481 188.316ZM245.502 84.2823C245.243 84.7762 245.047 85.3431 244.924 85.5917C242.172 91.1646 235.344 90.331 232.22 85.377C231.969 84.9798 231.662 84.618 231.413 84.2823C227.292 85.1341 222.788 88.8945 219.804 91.9564C216.712 95.1302 214.061 98.6412 211.779 102.432C206.582 111.06 201.39 119.691 196.207 128.328C195.564 129.4 194.989 130.514 194.253 131.842C199.329 132.1 202.795 134.469 205.916 136.141C209.1 137.847 210.782 138.602 213.695 141.455C213.798 141.196 213.907 140.96 213.988 140.714C216.193 134.011 218.394 127.307 220.598 120.604C220.693 120.317 220.8 120.035 220.912 119.755C221.14 119.185 221.374 118.531 222.198 118.854C222.936 119.142 222.666 119.745 222.486 120.282C222.241 121.01 221.997 121.739 221.763 122.472C219.532 129.459 217.297 136.445 215.08 143.437C214.613 144.911 213.881 145.493 212.126 145.531C211.305 145.549 210.481 145.455 209.611 145.41C208.615 147.59 207.661 149.679 206.614 151.973C207.839 152.873 208.87 153.703 209.971 154.429C214.678 157.532 219.908 158.972 225.414 159.44C225.151 159.203 224.868 158.761 224.936 158.501C225.359 156.9 225.533 155.216 226.632 153.832C227.181 153.14 227.654 152.305 227.879 151.461C228.202 150.25 227.476 149.521 226.246 149.778C225.3 149.976 224.424 150.49 223.483 150.731C223.113 150.826 222.428 150.685 222.285 150.429C222.103 150.101 222.204 149.487 222.403 149.113C222.574 148.79 223.025 148.518 223.403 148.42C224.686 148.086 225.98 147.755 227.291 147.586C228.356 147.448 229.194 147.92 229.532 149.046C229.79 149.908 230.079 150.761 230.381 151.702C230.1 152.339 229.853 152.977 229.545 153.585C229.017 154.629 228.478 155.67 227.895 156.685C227.415 157.522 226.9 158.346 226.327 159.121C226.223 159.261 225.969 159.402 225.76 159.468C226.121 159.496 226.483 159.52 226.846 159.54C233.164 159.888 241.567 160.254 247.869 159.54C256.536 158.559 267.555 156.791 269.407 154.028C270.014 153.123 270.104 150.277 269.899 148.441C269.527 145.108 269.306 141.755 268.836 138.437C268.16 133.664 267.063 128.983 265.816 124.315C265.753 124.079 265.69 123.844 265.626 123.609L265.536 123.639C263.965 124.141 262.484 124.023 261.199 122.912C260.56 122.362 260.079 121.776 260.206 120.758C260.351 119.59 259.742 119.002 258.6 119.3C256.827 119.763 254.808 119.465 253.337 121.013C252.9 121.473 252.081 121.592 251.417 121.809C250.361 122.153 249.298 122.482 248.221 122.756C246.084 123.301 244.155 122.782 242.588 121.291C240.965 119.747 240.246 117.779 240.82 115.562C241.509 112.902 243.001 110.754 245.329 109.206C245.956 108.789 246.594 108.293 247.02 107.687C247.92 106.407 247.655 105.118 246.375 104.292C246.126 104.131 245.608 104.262 245.266 104.392C244.239 104.782 243.238 105.239 242.226 105.668C241.393 106.022 240.571 106.406 239.724 106.72C238.031 107.348 236.363 108.168 234.609 108.469C233.264 108.7 231.777 108.365 230.406 108.05C229.95 107.946 229.527 107.169 229.321 106.613C228.758 105.101 228.93 103.596 229.65 102.146C230.737 99.9559 232.369 98.1565 234.36 96.8787C237.746 94.704 241.228 92.6294 245.18 91.5567C245.44 91.4863 245.699 91.3477 245.911 91.1803C247.182 90.1796 248.692 89.9182 250.236 89.757C250.792 89.6985 251.353 89.6773 251.909 89.6126C252.433 89.5518 252.952 89.456 253.473 89.3755C252.96 89.7485 252.5 90.285 251.927 90.469C246.644 92.1645 241.714 94.6213 236.886 97.3036C236.47 97.5345 236.139 97.9244 235.783 98.2562C235.426 98.5891 235.139 99.1511 234.732 99.2519C232.521 99.7973 232.171 101.804 231.343 103.415C230.881 104.312 230.678 105.282 231.574 106.111C232.623 107.081 233.899 107.345 235.023 106.771C237.074 105.725 239.067 104.553 241.171 103.63C242.501 103.048 243.97 102.723 245.41 102.461C247.538 102.074 249.179 102.876 250.036 104.524C250.68 105.764 250.498 106.752 249.544 107.757C248.98 108.352 248.509 109.034 248.001 109.68C247.743 110.008 247.562 110.524 247.232 110.646C245.282 111.365 244.865 113.312 243.881 114.769C242.917 116.198 242.869 117.913 243.847 119.329C244.765 120.659 246.328 120.79 247.852 120.524C248.607 120.393 249.361 120.195 250.079 119.928C252.369 119.077 254.62 118.115 256.931 117.328C258.106 116.928 259.371 116.703 260.611 116.609C261.27 116.559 261.813 116.777 261.517 117.922C261.01 119.888 262.809 121.777 264.84 121.883L265.127 121.797C263.922 117.518 262.533 113.324 260.505 109.341C260.252 108.844 259.912 108.346 259.839 107.817C259.831 107.759 259.831 107.699 259.837 107.638C259.911 106.951 260.704 106.525 261.288 106.897C261.353 106.938 261.406 106.987 261.442 107.046C261.984 107.934 262.378 108.916 262.8 109.875C264.434 113.592 265.68 117.436 266.801 121.321C267.281 121.178 267.755 121.021 268.213 120.826C270.593 119.814 272.929 118.696 275.285 117.626C275.916 117.34 276.69 116.84 277.193 117.547C277.805 118.408 276.945 119.034 276.356 119.407C273.634 121.136 270.762 122.533 267.516 123.021C267.442 123.032 267.368 123.046 267.295 123.062C267.587 124.104 267.872 125.148 268.156 126.192C268.33 126.827 268.595 127.438 268.765 127.914C272.358 124.551 274.17 123.473 279.596 121.746C278.703 120.034 277.911 118.061 276.737 116.35C273.14 111.104 269.509 105.873 265.679 100.796C261.217 94.8823 255.828 89.9033 249.499 85.9928C248.524 85.3901 247.14 84.6779 245.502 84.2823ZM232.045 126.419C233.105 127.536 234.656 128.444 233.71 130.407C233.635 130.563 233.662 130.864 233.768 130.997C235.195 132.773 234.49 134.648 233.816 136.362C233.303 137.665 233.932 138.682 234.122 139.805C234.159 140.027 235.046 140.389 235.27 140.25C236.615 139.418 237.906 138.49 239.164 137.529C239.81 137.036 240.329 136.38 240.947 135.846C241.473 135.393 242.072 135.025 242.616 134.591C245.134 132.578 247.93 131.275 251.209 131.168C253.569 131.091 255.227 132.494 255.757 134.853C256.721 139.137 255.006 142.449 252.087 145.36C252.038 145.409 251.986 145.465 251.924 145.491C248.724 146.87 248.047 150.225 246.313 152.741C246.071 153.091 246.383 153.898 246.568 154.45C246.869 155.352 247.084 156.24 246.409 157.026C246.171 157.303 245.668 157.557 245.347 157.497C245.071 157.445 244.727 156.956 244.675 156.62C244.034 152.489 244.562 148.7 247.946 145.759C249.107 144.75 250.224 143.689 251.306 142.597C252.342 141.552 253.307 140.461 253.304 138.824C253.303 138.29 253.59 137.75 253.773 137.224C254.426 135.348 253.394 133.644 251.418 133.499C249.622 133.368 247.946 133.9 246.409 134.805C244.721 135.797 243.06 136.836 241.409 137.888C241.069 138.105 240.737 138.424 240.551 138.775C239.564 140.646 237.771 141.492 236.001 142.31C234.441 143.031 234.116 142.666 232.961 141.302C231.728 139.845 231.467 138.211 231.852 136.597C232.64 133.292 232.476 130.023 232.083 126.727L232.045 126.419ZM214.303 151.405C215.558 151.712 216.763 151.826 217.997 151.315C218.493 151.11 219.226 150.848 219.397 151.599C219.48 151.962 219.03 152.627 218.642 152.874C218.077 153.232 217.351 153.335 216.508 153.608C215.694 153.278 214.757 152.999 213.929 152.531C213.364 152.211 212.481 151.3 212.543 151.21C213.135 150.361 213.716 151.262 214.303 151.405ZM303.557 98.1874L302.56 100.721C303.098 101.558 303.637 102.394 304.173 103.232C304.361 103.527 304.57 103.809 304.748 104.111C305.089 104.691 305.76 105.391 304.89 105.903C304.075 106.383 303.664 105.51 303.292 104.954C302.788 104.199 302.287 103.44 301.79 102.679L301.156 104.294C301.497 104.738 301.837 105.182 302.175 105.629C302.511 106.074 302.878 106.536 303.05 107.051C303.084 107.154 303.079 107.269 303.054 107.391C302.959 107.859 302.456 108.134 302.001 107.987C301.898 107.954 301.802 107.91 301.72 107.849C301.399 107.612 301.228 107.18 300.973 106.847L300.431 106.137C300.066 107.065 299.701 107.993 299.337 108.921C299.547 109.299 299.749 109.68 299.923 110.074C299.937 110.108 299.949 110.143 299.956 110.18C300.072 110.733 299.518 111.193 298.964 111.079C298.795 111.044 298.658 110.989 298.599 110.889L298.578 110.852C296.966 114.952 295.353 119.052 293.735 123.15C293.214 124.471 292.173 125.053 291.098 124.844L291.79 122.886C290.623 126.181 289.466 129.48 288.261 132.761C287.646 134.354 287.645 134.354 288.345 135.952C288.642 136.407 288.946 137.039 288.264 137.417C287.485 137.849 287.096 137.2 286.826 136.642C284.807 132.474 281.282 129.472 278.511 125.887C278.477 125.842 278.511 125.887 278.301 125.625C275.794 127.204 272.881 128.951 270.266 130.684C270.087 130.802 269.577 131.151 269.577 131.151C269.542 131.367 269.649 131.845 269.676 132.066C270.071 135.357 270.522 138.642 271.052 141.914C271.134 142.419 271.319 143.051 271.319 143.051C271.435 143.231 271.844 143.674 271.99 143.834C274.929 147.06 278.21 149.907 282.055 152.006C288.437 155.489 294.918 153.146 297.686 146.359C299.587 141.698 301.295 136.97 302.454 132.049C304.201 124.633 306.08 117.249 307.887 109.848C308.103 108.966 308.319 108.065 308.352 107.166C308.379 106.426 308.326 105.57 307.981 104.947C306.669 102.583 305.242 100.293 303.557 98.1874ZM213.499 114.239C213.357 115.053 213.446 115.969 213.094 116.67C212.619 117.613 213.011 118.124 213.614 118.653C214.033 119.021 214.521 119.309 214.949 119.667C216.273 120.776 216.558 122.846 216.001 124.434C214.781 127.916 212.062 129.629 208.812 130.539C207.33 130.953 205.639 130.688 204.051 130.603C203.684 130.584 203.293 130.085 203.011 129.729C202.811 129.478 202.777 129.096 202.669 128.773C203.043 128.669 203.412 128.512 203.792 128.477C204.205 128.439 204.629 128.514 205.048 128.54C208.067 128.714 210.677 127.716 212.99 125.822C215.119 124.079 214.924 121.478 212.534 120.149C211.924 119.809 211.246 119.577 210.677 119.183C209.662 118.48 209.452 117.592 210.245 116.689C211.111 115.703 212.183 114.896 213.175 114.022C213.495 113.74 213.568 113.842 213.499 114.239ZM198.553 126.593C199.317 127.122 200.008 127.756 200.878 128.476C200.377 128.885 200.163 129.177 199.885 129.265C199.125 129.506 197.464 128.806 197.227 128.036C197.097 127.614 197.353 127.015 197.587 126.577C197.66 126.439 198.321 126.432 198.553 126.593ZM231.915 126.326L232.044 126.418L231.957 126.435C231.453 126.541 230.87 126.818 230.497 126.644C229.065 125.975 227.669 126.09 226.221 126.464C225.895 126.548 225.529 126.526 225.189 126.488C225.005 126.466 224.836 126.307 224.66 126.21C224.791 125.996 224.869 125.702 225.059 125.578C226.947 124.348 229.535 124.645 231.915 126.326ZM220.525 105.877C220.78 106.217 221.035 106.557 221.251 106.845C220.718 108.367 220.493 109.846 219.727 110.951C219.022 111.969 217.743 112.598 216.699 113.373C216.28 113.684 215.758 113.87 215.376 114.216C214.652 114.874 214.265 114.064 213.727 113.92C213.784 113.716 213.774 113.437 213.908 113.318C214.787 112.533 215.68 111.761 216.601 111.026C218.042 109.875 219.237 108.569 219.773 106.741C219.87 106.408 220.266 106.163 220.525 105.877ZM291.413 105.67C291.383 106.042 291.749 106.82 291.96 107.128C292.091 107.319 292.177 107.449 292.255 107.568C292.713 108.261 293.255 108.893 293.853 109.471L294.403 108.065C294.231 107.888 294.069 107.695 293.903 107.515C293.392 106.962 292.742 106.095 292.241 105.532C291.785 105.212 291.436 105.401 291.413 105.67ZM215.575 103.824C215.758 103.989 215.933 104.146 216.106 104.304C215.976 104.447 215.864 104.69 215.711 104.718C214.367 104.972 213.017 105.193 211.665 105.406C211.571 105.42 211.455 105.291 211.35 105.229C211.463 105.07 211.549 104.806 211.694 104.768C212.949 104.438 214.215 104.149 215.575 103.824ZM295.465 100.844C295.158 101.411 295.761 102.513 296.246 103.356L296.939 101.586C296.835 101.452 296.731 101.318 296.627 101.183C296.452 100.958 296.212 100.783 295.778 100.699C295.655 100.675 295.523 100.735 295.465 100.844ZM296.643 97.4245C296.7 98.3977 297.263 99.1507 297.677 99.6995L298.283 98.1487L298.45 97.7213C298.439 97.7091 298.427 97.6968 298.414 97.6844C297.769 97.0235 296.594 96.6043 296.643 97.4245ZM309.35 56.492C307.219 57.2853 305.319 58.4646 303.71 60.0588C298.918 64.8069 296.695 70.5992 296.971 77.3044C297.1 80.4271 298.017 83.3576 299.882 85.9314C302.811 89.9724 307.565 91.579 312.337 90.1418C314.871 89.3789 317.066 88.0395 318.929 86.1766C323.243 81.8623 325.379 76.6181 325.541 71.2254C325.574 67.0393 324.853 63.7365 322.853 60.7925C319.78 56.2673 314.474 54.5849 309.35 56.492Z" fill="black"/>
<path fill-rule="evenodd" clip-rule="evenodd" d="M294.876 100.963C296.353 106.223 298.1 109.533 300.118 110.894C302.137 112.255 304.907 112.58 308.428 111.868L309.136 104.84L301.059 94.2581C300.301 94.0963 299.812 94.0963 299.592 94.2581C299.118 94.6062 299.09 95.7178 298.753 95.9106C298.18 96.2378 297.497 96.5169 296.702 96.7481L294.876 100.963Z" fill="white"/>
<path fill-rule="evenodd" clip-rule="evenodd" d="M298.823 110.687C298.881 110.787 299.017 110.842 299.185 110.877C299.737 110.991 300.288 110.532 300.173 109.981C300.165 109.944 300.155 109.909 300.14 109.875C299.747 108.986 299.214 108.16 298.763 107.294C297.99 105.813 297.251 104.829 296.557 103.31C296.065 102.457 295.382 101.271 295.703 100.676C295.762 100.566 295.893 100.507 296.015 100.531C296.447 100.615 296.686 100.789 296.86 101.014C298.311 102.888 299.748 104.773 301.185 106.659C301.438 106.991 301.609 107.422 301.928 107.658C302.01 107.719 302.105 107.762 302.207 107.795C302.66 107.942 303.161 107.667 303.255 107.202C303.28 107.08 303.285 106.964 303.251 106.862C303.08 106.349 302.715 105.889 302.38 105.445C300.953 103.553 299.473 101.699 298.085 99.7776C297.682 99.2186 296.942 98.3896 296.876 97.2674C296.827 96.4495 297.997 96.8677 298.639 97.5264C299.352 98.258 299.443 98.5181 299.961 99.3348C301.118 101.16 302.293 102.975 303.492 104.772C303.862 105.326 304.271 106.197 305.082 105.719C305.948 105.208 305.28 104.51 304.94 103.931C304.764 103.631 304.556 103.35 304.368 103.055C303.094 101.057 301.795 99.0736 300.564 97.0492C300.253 96.5374 299.866 95.9876 299.943 95.3405C299.993 94.9257 300.463 94.7082 300.806 94.9472C301.135 95.1766 301.446 95.4321 301.725 95.7195C304.336 98.4015 306.356 101.514 308.157 104.765C308.501 105.386 308.554 106.239 308.527 106.977C308.493 107.873 308.279 108.771 308.065 109.65C307.529 111.847 306.987 114.043 306.444 116.238C307.009 116.317 307.573 116.395 308.137 116.47C308.699 114.149 309.257 111.828 309.819 109.508C310.111 108.303 310.384 107.054 310.263 105.808C310.123 104.37 309.281 103.281 308.541 102.09C306.733 99.1799 304.819 96.3176 302.31 93.9575C301.44 93.1395 300.448 92.6872 299.264 93.1963C298.055 93.7169 297.773 94.7151 298.176 95.937C295.628 94.9779 295.396 96.4952 295.862 98.6048C295.862 98.6048 295.083 98.4659 294.634 98.8637C294.059 99.3721 293.978 100.561 294.272 101.545C295.263 104.872 297.09 107.752 298.823 110.687Z" fill="black"/>
<path fill-rule="evenodd" clip-rule="evenodd" d="M322.24 68.462C322.24 73.438 321.685 80.2595 311.834 87.2057C320.042 78.9228 318.097 70.0456 318.097 65.3436C318.097 60.6417 322.24 63.4861 322.24 68.462Z" fill="white"/>
<path fill-rule="evenodd" clip-rule="evenodd" d="M244.673 62.5333C245.101 62.8706 245.363 63.4093 245.754 63.8052C247.393 65.4644 248.699 65.5526 250.559 64.1563C251.005 63.8213 251.392 63.365 251.888 63.1536C252.174 63.0312 252.686 63.201 252.967 63.4116C253.096 63.5091 253.031 64.1225 252.853 64.3273C251.633 65.7351 250.211 66.8248 248.696 66.868C246.434 66.8325 243.821 65.0324 243.324 63.3997C243.227 63.0805 243.354 62.4736 243.582 62.3346C243.826 62.1856 244.401 62.32 244.673 62.5333ZM251.276 53.3571C251.72 55.1103 252.17 56.8635 252.549 58.6309C252.92 60.3625 252.4 60.9517 250.621 60.867C249.858 60.8308 249.088 60.738 248.348 60.5616C248.102 60.5027 247.776 60.0972 247.782 59.8577C247.789 59.6036 248.111 59.1942 248.358 59.1399C249.086 58.9805 249.846 58.9632 250.795 58.8704C250.375 57.0918 249.948 55.4326 249.603 53.756C249.463 53.0748 248.936 52.0702 250.009 51.8164C251.057 51.5681 251.097 52.6459 251.276 53.3571ZM244.833 56.2851C245.264 57.6655 244.565 59.217 243.376 59.5179C242.542 59.7287 241.84 59.2511 241.539 58.2696C241.133 56.9439 241.802 55.2597 242.876 54.904C243.699 54.6313 244.492 55.1909 244.833 56.2851ZM256.548 54.9982C257.512 55.0059 258.342 56.0783 258.283 57.2408C258.221 58.4807 257.368 59.4234 256.397 59.3267C255.474 59.2343 254.917 58.3702 254.967 57.1103C255.018 55.8438 255.656 54.9909 256.548 54.9982Z" fill="black"/>
</svg>
